ComicNeue-Angular_Oblique.ufo
<glyph name="exclam" format="1">
  <advance width="185"/>
  <unicode hex="0021"/>
  <outline>
    <contour>
      <point x="93" y="159" type="line"/>
      <point x="37" y="148" type="line"/>
      <point x="150" y="682" type="line"/>
      <point x="207" y="692" type="line"/>
    </contour>
    <contour>
      <point x="81" y="92" type="line"/>
      <point x="57" y="10" type="line"/>
      <point x="-1" y="0" type="line"/>
      <point x="23" y="82" type="line"/>
    </contour>
  </outline>
</glyph>
<glyph name="dollar" format="1">
  <advance width="605"/>
  <unicode hex="0024"/>
  <outline>
    <contour>
      <point x="363" y="383" type="line"/>
      <point x="475" y="347"/>
      <point x="531" y="295"/>
      <point x="531" y="224" type="curve" smooth="yes"/>
      <point x="531" y="95"/>
      <point x="399" y="14"/>
      <point x="282" y="1" type="curve"/>
      <point x="268" y="-65" type="line"/>
      <point x="213" y="-75" type="line"/>
      <point x="229" y="0" type="line"/>
      <point x="124" y="8"/>
      <point x="51" y="67"/>
      <point x="41" y="152" type="curve"/>
      <point x="104" y="162" type="line"/>
      <point x="114" y="95"/>
      <point x="175" y="61"/>
      <point x="240" y="54" type="curve"/>
      <point x="300" y="338" type="line"/>
      <point x="224" y="363"/>
      <point x="150" y="407"/>
      <point x="150" y="483" type="curve" smooth="yes"/>
      <point x="150" y="622"/>
      <point x="296" y="674"/>
      <point x="373" y="678" type="curve"/>
      <point x="386" y="741" type="line"/>
      <point x="441" y="751" type="line"/>
      <point x="426" y="681" type="line"/>
      <point x="490" y="679"/>
      <point x="601" y="661"/>
      <point x="601" y="568" type="curve" smooth="yes"/>
      <point x="601" y="554"/>
      <point x="599" y="534"/>
      <point x="593" y="521" type="curve"/>
      <point x="538" y="510" type="line"/>
      <point x="541" y="522"/>
      <point x="546" y="536"/>
      <point x="546" y="548" type="curve" smooth="yes"/>
      <point x="546" y="601"/>
      <point x="484" y="630"/>
      <point x="416" y="631" type="curve"/>
    </contour>
    <contour>
      <point x="362" y="628" type="line"/>
      <point x="295" y="619"/>
      <point x="215" y="571"/>
      <point x="215" y="492" type="curve" smooth="yes"/>
      <point x="215" y="453"/>
      <point x="244" y="425"/>
      <point x="313" y="399" type="curve"/>
    </contour>
    <contour>
      <point x="293" y="55" type="line"/>
      <point x="368" y="67"/>
      <point x="466" y="119"/>
      <point x="466" y="213" type="curve" smooth="yes"/>
      <point x="466" y="274"/>
      <point x="410" y="300"/>
      <point x="350" y="322" type="curve"/>
    </contour>
  </outline>
</glyph>
<glyph name="ampersand" format="1">
  <advance width="662"/>
  <unicode hex="0026"/>
  <outline>
    <contour>
      <point x="470" y="159" type="curve"/>
      <point x="548" y="34" type="line"/>
      <point x="500" y="0" type="line"/>
      <point x="430" y="110" type="line"/>
      <point x="364" y="33"/>
      <point x="266" y="-4"/>
      <point x="208" y="-4" type="curve" smooth="yes"/>
      <point x="122" y="-4"/>
      <point x="40" y="52"/>
      <point x="40" y="145" type="curve" smooth="yes"/>
      <point x="40" y="283"/>
      <point x="158" y="345"/>
      <point x="251" y="390" type="curve"/>
      <point x="232" y="419"/>
      <point x="206" y="467"/>
      <point x="206" y="519" type="curve" smooth="yes"/>
      <point x="206" y="605"/>
      <point x="298" y="690"/>
      <point x="386" y="690" type="curve" smooth="yes"/>
      <point x="454" y="690"/>
      <point x="506" y="636"/>
      <point x="506" y="574" type="curve" smooth="yes"/>
      <point x="506" y="456"/>
      <point x="395" y="411"/>
      <point x="334" y="376" type="curve"/>
      <point x="442" y="204" type="line"/>
      <point x="465" y="238"/>
      <point x="488" y="281"/>
      <point x="509" y="333" type="curve"/>
      <point x="543" y="283" type="line"/>
      <point x="519" y="233"/>
      <point x="496" y="193"/>
    </contour>
    <contour>
      <point x="375" y="637" type="curve" smooth="yes"/>
      <point x="321" y="637"/>
      <point x="261" y="586"/>
      <point x="261" y="528" type="curve" smooth="yes"/>
      <point x="261" y="486"/>
      <point x="287" y="441"/>
      <point x="306" y="417" type="curve"/>
      <point x="436" y="477"/>
      <point x="452" y="521"/>
      <point x="452" y="563" type="curve" smooth="yes"/>
      <point x="452" y="601"/>
      <point x="416" y="637"/>
    </contour>
    <contour>
      <point x="219" y="50" type="curve" smooth="yes"/>
      <point x="266" y="50"/>
      <point x="345" y="82"/>
      <point x="403" y="153" type="curve"/>
      <point x="281" y="350" type="line"/>
      <point x="187" y="305"/>
      <point x="95" y="262"/>
      <point x="95" y="155" type="curve" smooth="yes"/>
      <point x="95" y="83"/>
      <point x="165" y="50"/>
    </contour>
  </outline>
</glyph>
<glyph name="parenright" format="1">
  <advance width="377"/>
  <unicode hex="0029"/>
  <outline>
    <contour>
      <point x="169" y="771" type="curve"/>
      <point x="215" y="810" type="line"/>
      <point x="311" y="710"/>
      <point x="342" y="583"/>
      <point x="342" y="470" type="curve" smooth="yes"/>
      <point x="342" y="268"/>
      <point x="228" y="44"/>
      <point x="35" y="-118" type="curve"/>
      <point x="11" y="-76" type="line"/>
      <point x="180" y="71"/>
      <point x="287" y="275"/>
      <point x="287" y="461" type="curve" smooth="yes"/>
      <point x="287" y="664"/>
      <point x="170" y="766"/>
    </contour>
  </outline>
</glyph>
<glyph name="zero" format="1">
  <advance width="614"/>
  <unicode hex="0030"/>
  <outline>
    <contour>
      <point x="240" y="-3" type="curve" smooth="yes"/>
      <point x="133" y="-3"/>
      <point x="71" y="97"/>
      <point x="71" y="228" type="curve" smooth="yes"/>
      <point x="71" y="453"/>
      <point x="247" y="686"/>
      <point x="409" y="686" type="curve" smooth="yes"/>
      <point x="515" y="686"/>
      <point x="576" y="587"/>
      <point x="576" y="456" type="curve" smooth="yes"/>
      <point x="576" y="224"/>
      <point x="397" y="-3"/>
    </contour>
    <contour>
      <point x="398" y="631" type="curve" smooth="yes"/>
      <point x="277" y="631"/>
      <point x="127" y="441"/>
      <point x="127" y="238" type="curve" smooth="yes"/>
      <point x="127" y="133"/>
      <point x="171" y="52"/>
      <point x="252" y="52" type="curve" smooth="yes"/>
      <point x="372" y="52"/>
      <point x="521" y="242"/>
      <point x="521" y="443" type="curve" smooth="yes"/>
      <point x="521" y="549"/>
      <point x="476" y="631"/>
    </contour>
  </outline>
</glyph>
<glyph name="one" format="1">
  <advance width="414"/>
  <unicode hex="0031"/>
  <outline>
    <contour>
      <point x="206" y="54" type="line"/>
      <point x="304" y="54" type="line"/>
      <point x="283" y="0" type="line"/>
      <point x="20" y="0" type="line"/>
      <point x="41" y="54" type="line"/>
      <point x="152" y="54" type="line"/>
      <point x="268" y="559" type="line"/>
      <point x="140" y="462" type="line"/>
      <point x="112" y="502" type="line"/>
      <point x="349" y="681" type="line"/>
    </contour>
  </outline>
</glyph>
<glyph name="two" format="1">
  <advance width="524"/>
  <unicode hex="0032"/>
  <outline>
    <contour>
      <point x="75" y="54" type="curve"/>
      <point x="419" y="54" type="line"/>
      <point x="398" y="0" type="line"/>
      <point x="10" y="0" type="line"/>
      <point x="15" y="27" type="line" smooth="yes"/>
      <point x="43" y="176"/>
      <point x="121" y="241"/>
      <point x="249" y="317" type="curve" smooth="yes"/>
      <point x="394" y="402"/>
      <point x="454" y="464"/>
      <point x="454" y="533" type="curve" smooth="yes"/>
      <point x="454" y="596"/>
      <point x="390" y="620"/>
      <point x="341" y="620" type="curve" smooth="yes"/>
      <point x="243" y="620"/>
      <point x="167" y="537"/>
      <point x="156" y="524" type="curve"/>
      <point x="128" y="566" type="line"/>
      <point x="160" y="599"/>
      <point x="244" y="674"/>
      <point x="353" y="674" type="curve" smooth="yes"/>
      <point x="474.843" y="674"/>
      <point x="509.006" y="604.738"/>
      <point x="509.006" y="542.606" type="curve" smooth="yes"/>
      <point x="509.006" y="426.308"/>
      <point x="384.539" y="339.73"/>
      <point x="269" y="272" type="curve" smooth="yes"/>
      <point x="162" y="209"/>
      <point x="106" y="167"/>
    </contour>
  </outline>
</glyph>
<glyph name="four" format="1">
  <advance width="518"/>
  <unicode hex="0034"/>
  <outline>
    <contour>
      <point x="343" y="10" type="line"/>
      <point x="289" y="0" type="line"/>
      <point x="324" y="173" type="line"/>
      <point x="19" y="173" type="line"/>
      <point x="486" y="684" type="line"/>
      <point x="387" y="217" type="line"/>
      <point x="454" y="217" type="line"/>
      <point x="432" y="166" type="line"/>
      <point x="376" y="166" type="line"/>
    </contour>
    <contour>
      <point x="127" y="219" type="line"/>
      <point x="335" y="219" type="line"/>
      <point x="399" y="521" type="line"/>
    </contour>
  </outline>
</glyph>
<glyph name="six" format="1">
  <advance width="546"/>
  <unicode hex="0036"/>
  <outline>
    <contour>
      <point x="442" y="684" type="curve"/>
      <point x="448" y="634" type="line"/>
      <point x="346" y="596"/>
      <point x="226" y="503"/>
      <point x="169" y="400" type="curve"/>
      <point x="210" y="422"/>
      <point x="264" y="442"/>
      <point x="327" y="442" type="curve" smooth="yes"/>
      <point x="345" y="442"/>
      <point x="482" y="437"/>
      <point x="482" y="296" type="curve" smooth="yes"/>
      <point x="482" y="160"/>
      <point x="375" y="-5"/>
      <point x="222" y="-5" type="curve" smooth="yes"/>
      <point x="100" y="-5"/>
      <point x="49" y="69"/>
      <point x="49" y="169" type="curve" smooth="yes"/>
      <point x="49" y="394"/>
      <point x="231" y="594"/>
    </contour>
    <contour>
      <point x="130" y="318" type="curve"/>
      <point x="112" y="273"/>
      <point x="102" y="212"/>
      <point x="102" y="175" type="curve" smooth="yes"/>
      <point x="102" y="72"/>
      <point x="170" y="48"/>
      <point x="234" y="48" type="curve" smooth="yes"/>
      <point x="347" y="48"/>
      <point x="429" y="179"/>
      <point x="429" y="284" type="curve" smooth="yes"/>
      <point x="429" y="380"/>
      <point x="345" y="389"/>
      <point x="316" y="389" type="curve" smooth="yes"/>
      <point x="223" y="389"/>
      <point x="153" y="337"/>
    </contour>
  </outline>
</glyph>
<glyph name="seven" format="1">
  <advance width="501"/>
  <unicode hex="0037"/>
  <outline>
    <contour>
      <point x="99" y="0" type="line"/>
      <point x="57" y="25" type="line"/>
      <point x="486" y="621" type="line"/>
      <point x="150" y="621" type="line"/>
      <point x="152" y="675" type="line"/>
      <point x="584" y="675" type="line"/>
    </contour>
  </outline>
</glyph>
<glyph name="nine" format="1">
  <advance width="546"/>
  <unicode hex="0039"/>
  <outline>
    <contour>
      <point x="133" y="-3" type="curve"/>
      <point x="126" y="47" type="line"/>
      <point x="239" y="89"/>
      <point x="344" y="178"/>
      <point x="405" y="281" type="curve"/>
      <point x="365" y="259"/>
      <point x="310" y="239"/>
      <point x="246" y="239" type="curve" smooth="yes"/>
      <point x="229" y="239"/>
      <point x="92" y="244"/>
      <point x="92" y="384" type="curve" smooth="yes"/>
      <point x="92" y="563"/>
      <point x="238" y="686"/>
      <point x="354" y="686" type="curve" smooth="yes"/>
      <point x="475" y="686"/>
      <point x="525" y="613"/>
      <point x="525" y="512" type="curve" smooth="yes"/>
      <point x="525" y="288"/>
      <point x="345" y="80"/>
    </contour>
    <contour>
      <point x="445" y="363" type="curve"/>
      <point x="461" y="409"/>
      <point x="473" y="467"/>
      <point x="473" y="505" type="curve" smooth="yes"/>
      <point x="473" y="609"/>
      <point x="404" y="633"/>
      <point x="340" y="633" type="curve" smooth="yes"/>
      <point x="227" y="633"/>
      <point x="146" y="502"/>
      <point x="146" y="396" type="curve" smooth="yes"/>
      <point x="146" y="300"/>
      <point x="230" y="292"/>
      <point x="258" y="292" type="curve" smooth="yes"/>
      <point x="351" y="292"/>
      <point x="422" y="344"/>
    </contour>
  </outline>
</glyph>
<glyph name="colon" format="1">
  <advance width="250"/>
  <unicode hex="003A"/>
  <outline>
    <contour>
      <point x="218" y="445" type="line"/>
      <point x="192" y="363" type="line"/>
      <point x="116" y="353" type="line"/>
      <point x="142" y="435" type="line"/>
    </contour>
    <contour>
      <point x="115" y="92" type="line"/>
      <point x="90" y="10" type="line"/>
      <point x="14" y="0" type="line"/>
      <point x="40" y="82" type="line"/>
    </contour>
  </outline>
</glyph>
<glyph name="less" format="1">
  <advance width="568"/>
  <unicode hex="003C"/>
  <outline>
    <contour>
      <point x="391" y="-2" type="line"/>
      <point x="70" y="251" type="line"/>
      <point x="517" y="504" type="line"/>
      <point x="536" y="459" type="line"/>
      <point x="168" y="250" type="line"/>
      <point x="431" y="43" type="line"/>
    </contour>
  </outline>
</glyph>
<glyph name="equal" format="1">
  <advance width="505"/>
  <unicode hex="003D"/>
  <outline>
    <contour>
      <point x="428" y="299" type="line"/>
      <point x="85" y="299" type="line"/>
      <point x="107" y="353" type="line"/>
      <point x="450" y="353" type="line"/>
    </contour>
    <contour>
      <point x="396" y="146" type="line"/>
      <point x="53" y="146" type="line"/>
      <point x="74" y="199" type="line"/>
      <point x="417" y="199" type="line"/>
    </contour>
  </outline>
</glyph>
<glyph name="question" format="1">
  <advance width="542"/>
  <unicode hex="003F"/>
  <outline>
    <contour>
      <point x="350" y="713" type="curve" smooth="yes"/>
      <point x="464" y="713"/>
      <point x="532" y="651"/>
      <point x="532" y="555" type="curve" smooth="yes"/>
      <point x="532" y="416"/>
      <point x="414" y="339"/>
      <point x="347" y="289" type="curve" smooth="yes"/>
      <point x="171" y="157" type="line"/>
      <point x="154" y="205" type="line"/>
      <point x="323" y="332" type="line" smooth="yes"/>
      <point x="387" y="380"/>
      <point x="478" y="438"/>
      <point x="478" y="544" type="curve" smooth="yes"/>
      <point x="478" y="604"/>
      <point x="442" y="659"/>
      <point x="339" y="659" type="curve" smooth="yes"/>
      <point x="244" y="659"/>
      <point x="171" y="572"/>
      <point x="163" y="561" type="curve"/>
      <point x="132" y="600" type="line"/>
      <point x="161" y="633"/>
      <point x="243" y="713"/>
    </contour>
    <contour>
      <point x="177" y="92" type="line"/>
      <point x="153" y="10" type="line"/>
      <point x="95" y="0" type="line"/>
      <point x="119" y="82" type="line"/>
    </contour>
  </outline>
</glyph>
<glyph name="B" format="1">
  <advance width="602"/>
  <unicode hex="0042"/>
  <outline>
    <contour>
      <point x="10" y="0" type="line"/>
      <point x="154" y="681" type="line"/>
      <point x="365" y="681" type="line" smooth="yes"/>
      <point x="482" y="681"/>
      <point x="548" y="630"/>
      <point x="548" y="544" type="curve" smooth="yes"/>
      <point x="548" y="468"/>
      <point x="503" y="402"/>
      <point x="414" y="369" type="curve"/>
      <point x="470" y="364"/>
      <point x="543" y="315"/>
      <point x="543" y="234" type="curve" smooth="yes"/>
      <point x="543" y="22"/>
      <point x="202" y="0"/>
      <point x="77" y="0" type="curve" smooth="yes"/>
    </contour>
    <contour>
      <point x="134" y="332" type="line"/>
      <point x="75" y="54" type="line"/>
      <point x="87" y="53"/>
      <point x="90" y="53"/>
      <point x="99" y="53" type="curve" smooth="yes"/>
      <point x="215" y="53"/>
      <point x="489" y="81"/>
      <point x="489" y="229" type="curve" smooth="yes"/>
      <point x="489" y="315"/>
      <point x="384" y="332"/>
      <point x="318" y="332" type="curve" smooth="yes"/>
    </contour>
    <contour>
      <point x="197" y="627" type="line"/>
      <point x="145" y="385" type="line"/>
      <point x="285" y="385" type="line" smooth="yes"/>
      <point x="368" y="385"/>
      <point x="493" y="414"/>
      <point x="493" y="534" type="curve" smooth="yes"/>
      <point x="493" y="582"/>
      <point x="464" y="627"/>
      <point x="354" y="627" type="curve" smooth="yes"/>
    </contour>
  </outline>
</glyph>
<glyph name="F" format="1">
  <advance width="505"/>
  <unicode hex="0046"/>
  <outline>
    <contour>
      <point x="572" y="625" type="line"/>
      <point x="193" y="625" type="line"/>
      <point x="140" y="374" type="line"/>
      <point x="478" y="374" type="line"/>
      <point x="456" y="317" type="line"/>
      <point x="128" y="317" type="line"/>
      <point x="63" y="10" type="line"/>
      <point x="5" y="0" type="line"/>
      <point x="149" y="681" type="line"/>
      <point x="594" y="681" type="line"/>
    </contour>
  </outline>
</glyph>
<glyph name="J" format="1">
  <advance width="469"/>
  <unicode hex="004A"/>
  <outline>
    <contour>
      <point x="277" y="679" type="line"/>
      <point x="538" y="679" type="line"/>
      <point x="526" y="622" type="line"/>
      <point x="475" y="622" type="line"/>
      <point x="377" y="162" type="line" smooth="yes"/>
      <point x="357" y="67"/>
      <point x="272" y="1"/>
      <point x="169" y="1" type="curve" smooth="yes"/>
      <point x="81" y="1"/>
      <point x="25" y="52"/>
      <point x="25" y="127" type="curve" smooth="yes"/>
      <point x="25" y="138"/>
      <point x="26" y="150"/>
      <point x="29" y="162" type="curve" smooth="yes"/>
      <point x="36" y="197" type="line"/>
      <point x="94" y="207" type="line"/>
      <point x="85" y="162" type="line" smooth="yes"/>
      <point x="83" y="154"/>
      <point x="82" y="146"/>
      <point x="82" y="138" type="curve" smooth="yes"/>
      <point x="82" y="87"/>
      <point x="119" y="52"/>
      <point x="180" y="52" type="curve" smooth="yes"/>
      <point x="252" y="52"/>
      <point x="307" y="98"/>
      <point x="321" y="162" type="curve" smooth="yes"/>
      <point x="419" y="622" type="line"/>
      <point x="265" y="622" type="line"/>
    </contour>
  </outline>
</glyph>
<glyph name="M" format="1">
  <advance width="865"/>
  <unicode hex="004D"/>
  <outline>
    <contour>
      <point x="284" y="557" type="line"/>
      <point x="53" y="10" type="line"/>
      <point x="-5" y="0" type="line"/>
      <point x="277" y="671" type="line"/>
      <point x="332" y="681" type="line"/>
      <point x="376" y="65" type="line"/>
      <point x="699" y="671" type="line"/>
      <point x="758" y="681" type="line"/>
      <point x="762" y="10" type="line"/>
      <point x="702" y="0" type="line"/>
      <point x="702" y="573" type="line"/>
      <point x="403" y="10" type="line"/>
      <point x="325" y="0" type="line"/>
    </contour>
  </outline>
</glyph>
<glyph name="P" format="1">
  <advance width="545"/>
  <unicode hex="0050"/>
  <outline>
    <contour>
      <point x="115" y="238" type="curve"/>
      <point x="67" y="10" type="line"/>
      <point x="10" y="0" type="line"/>
      <point x="153" y="674" type="line"/>
      <point x="176" y="676"/>
      <point x="232" y="679"/>
      <point x="266" y="679" type="curve" smooth="yes"/>
      <point x="393" y="679"/>
      <point x="565" y="655"/>
      <point x="565" y="515" type="curve" smooth="yes"/>
      <point x="565" y="318"/>
      <point x="304" y="244"/>
    </contour>
    <contour>
      <point x="197" y="623" type="line"/>
      <point x="127" y="293" type="line"/>
      <point x="368" y="303"/>
      <point x="506" y="387"/>
      <point x="506" y="497" type="curve" smooth="yes"/>
      <point x="506" y="568"/>
      <point x="446" y="623"/>
      <point x="243" y="623" type="curve" smooth="yes"/>
    </contour>
  </outline>
</glyph>
<glyph name="Q" format="1">
  <advance width="721"/>
  <unicode hex="0051"/>
  <outline>
    <contour>
      <point x="512" y="92" type="curve"/>
      <point x="618" y="12" type="line"/>
      <point x="584" y="-35" type="line"/>
      <point x="463" y="57" type="line"/>
      <point x="404" y="20"/>
      <point x="339" y="-1"/>
      <point x="277" y="-1" type="curve" smooth="yes"/>
      <point x="139" y="-1"/>
      <point x="54" y="101"/>
      <point x="54" y="237" type="curve" smooth="yes"/>
      <point x="54" y="466"/>
      <point x="273" y="679"/>
      <point x="469" y="679" type="curve" smooth="yes"/>
      <point x="607" y="679"/>
      <point x="692" y="575"/>
      <point x="692" y="440" type="curve" smooth="yes"/>
      <point x="692" y="306"/>
      <point x="614" y="174"/>
    </contour>
    <contour>
      <point x="474" y="126" type="line"/>
      <point x="558" y="194"/>
      <point x="629" y="307"/>
      <point x="629" y="420" type="curve" smooth="yes"/>
      <point x="629" y="531"/>
      <point x="563" y="625"/>
      <point x="449" y="625" type="curve" smooth="yes"/>
      <point x="296" y="625"/>
      <point x="116" y="445"/>
      <point x="116" y="245" type="curve" smooth="yes"/>
      <point x="116" y="133"/>
      <point x="182" y="52"/>
      <point x="289" y="52" type="curve" smooth="yes"/>
      <point x="334" y="52"/>
      <point x="381" y="67"/>
      <point x="424" y="92" type="curve"/>
      <point x="326" y="163" type="line"/>
      <point x="383" y="193" type="line"/>
    </contour>
  </outline>
</glyph>
<glyph name="R" format="1">
  <advance width="594"/>
  <unicode hex="0052"/>
  <outline>
    <contour>
      <point x="199" y="630" type="line"/>
      <point x="128" y="295" type="line"/>
      <point x="355" y="303"/>
      <point x="514" y="389"/>
      <point x="514" y="501" type="curve" smooth="yes"/>
      <point x="514" y="574"/>
      <point x="450" y="630"/>
      <point x="241" y="630" type="curve" smooth="yes"/>
    </contour>
    <contour>
      <point x="115" y="237" type="curve"/>
      <point x="67" y="10" type="line"/>
      <point x="10" y="0" type="line"/>
      <point x="154" y="681" type="line"/>
      <point x="177" y="683"/>
      <point x="231" y="687"/>
      <point x="265" y="687" type="curve" smooth="yes"/>
      <point x="395" y="687"/>
      <point x="573" y="663"/>
      <point x="573" y="519" type="curve" smooth="yes"/>
      <point x="573" y="419"/>
      <point x="486" y="318"/>
      <point x="338" y="275" type="curve"/>
      <point x="388" y="240"/>
      <point x="452" y="172"/>
      <point x="496" y="37" type="curve"/>
      <point x="446" y="0" type="line"/>
      <point x="400" y="151"/>
      <point x="326" y="213"/>
      <point x="283" y="238" type="curve" smooth="yes"/>
      <point x="269" y="246"/>
      <point x="242" y="249"/>
      <point x="221" y="249" type="curve" smooth="yes"/>
      <point x="197" y="249"/>
      <point x="150" y="244"/>
    </contour>
  </outline>
</glyph>
<glyph name="T" format="1">
  <advance width="522"/>
  <unicode hex="0054"/>
  <outline>
    <contour>
      <point x="170" y="0" type="line"/>
      <point x="302" y="625" type="line"/>
      <point x="87" y="625" type="line"/>
      <point x="99" y="681" type="line"/>
      <point x="601" y="681" type="line"/>
      <point x="589" y="625" type="line"/>
      <point x="359" y="625" type="line"/>
      <point x="229" y="10" type="line"/>
    </contour>
  </outline>
</glyph>
<glyph name="V" format="1">
  <advance width="540"/>
  <unicode hex="0056"/>
  <outline>
    <contour>
      <point x="216" y="86" type="line"/>
      <point x="567" y="680" type="line"/>
      <point x="615" y="659" type="line"/>
      <point x="232" y="11" type="line"/>
      <point x="167" y="0" type="line"/>
      <point x="95" y="659" type="line"/>
      <point x="152" y="679" type="line"/>
    </contour>
  </outline>
</glyph>
<glyph name="W" format="1">
  <advance width="878"/>
  <unicode hex="0057"/>
  <outline>
    <contour>
      <point x="957" y="680" type="line"/>
      <point x="587" y="11" type="line"/>
      <point x="525" y="0" type="line"/>
      <point x="503" y="579" type="line"/>
      <point x="212" y="11" type="line"/>
      <point x="152" y="0" type="line"/>
      <point x="97" y="671" type="line"/>
      <point x="153" y="681" type="line"/>
      <point x="201" y="100" type="line"/>
      <point x="492" y="670" type="line"/>
      <point x="553" y="681" type="line"/>
      <point x="575" y="92" type="line"/>
      <point x="894" y="669" type="line"/>
    </contour>
  </outline>
</glyph>
<glyph name="X" format="1">
  <advance width="680"/>
  <unicode hex="0058"/>
  <outline>
    <contour>
      <point x="397" y="344" type="line"/>
      <point x="578" y="36" type="line"/>
      <point x="528" y="0" type="line"/>
      <point x="351" y="301" type="line"/>
      <point x="35" y="0" type="line"/>
      <point x="3" y="39" type="line"/>
      <point x="325" y="345" type="line"/>
      <point x="151" y="645" type="line"/>
      <point x="201" y="681" type="line"/>
      <point x="371" y="389" type="line"/>
      <point x="679" y="681" type="line"/>
      <point x="711" y="642" type="line"/>
    </contour>
  </outline>
</glyph>
<glyph name="Y" format="1">
  <advance width="628"/>
  <unicode hex="0059"/>
  <outline>
    <contour>
      <point x="323" y="266" type="line"/>
      <point x="654" y="677" type="line"/>
      <point x="716" y="677" type="line"/>
      <point x="171" y="0" type="line"/>
      <point x="109" y="0" type="line"/>
      <point x="280" y="214" type="line"/>
      <point x="108" y="677" type="line"/>
      <point x="170" y="677" type="line"/>
    </contour>
  </outline>
</glyph>
<glyph name="Z" format="1">
  <advance width="621"/>
  <unicode hex="005A"/>
  <outline>
    <contour>
      <point x="18" y="0" type="line"/>
      <point x="4" y="55" type="line"/>
      <point x="577" y="620" type="line"/>
      <point x="155" y="620" type="line"/>
      <point x="179" y="681" type="line"/>
      <point x="635" y="681" type="line"/>
      <point x="649" y="626" type="line"/>
      <point x="75" y="61" type="line"/>
      <point x="519" y="61" type="line"/>
      <point x="496" y="0" type="line"/>
    </contour>
  </outline>
</glyph>
<glyph name="bracketleft" format="1">
  <advance width="315"/>
  <unicode hex="005B"/>
  <outline>
    <contour>
      <point x="152" y="-124" type="line"/>
      <point x="-16" y="-124" type="line"/>
      <point x="182" y="805" type="line"/>
      <point x="375" y="805" type="line"/>
      <point x="353" y="751" type="line"/>
      <point x="224" y="751" type="line"/>
      <point x="50" y="-70" type="line"/>
      <point x="174" y="-70" type="line"/>
    </contour>
  </outline>
</glyph>
<glyph name="bracketright" format="1">
  <advance width="315"/>
  <unicode hex="005D"/>
  <outline>
    <contour>
      <point x="203" y="805" type="line"/>
      <point x="370" y="805" type="line"/>
      <point x="172" y="-124" type="line"/>
      <point x="-21" y="-124" type="line"/>
      <point x="1" y="-70" type="line"/>
      <point x="130" y="-70" type="line"/>
      <point x="304" y="751" type="line"/>
      <point x="180" y="751" type="line"/>
    </contour>
  </outline>
</glyph>
<glyph name="asciicircum" format="1">
  <advance width="500"/>
  <unicode hex="005E"/>
  <outline>
    <contour>
      <point x="240" y="718" type="line"/>
      <point x="216" y="760" type="line"/>
      <point x="392" y="881" type="line"/>
      <point x="495" y="759" type="line"/>
      <point x="450" y="719" type="line"/>
      <point x="373" y="806" type="line"/>
    </contour>
  </outline>
</glyph>
<glyph name="underscore" format="1">
  <advance width="476"/>
  <unicode hex="005F"/>
  <outline>
    <contour>
      <point x="411" y="-54" type="line"/>
      <point x="-78" y="-54" type="line"/>
      <point x="-57" y="0" type="line"/>
      <point x="433" y="0" type="line"/>
    </contour>
  </outline>
</glyph>
<glyph name="grave" format="1">
  <advance width="500"/>
  <unicode hex="0060"/>
  <outline>
    <contour>
      <point x="448" y="754" type="line"/>
      <point x="396" y="726" type="line"/>
      <point x="286" y="866" type="line"/>
      <point x="353" y="900" type="line"/>
    </contour>
  </outline>
</glyph>
<glyph name="d" format="1">
  <advance width="526"/>
  <unicode hex="0064"/>
  <outline>
    <contour>
      <point x="495" y="687" type="line"/>
      <point x="554" y="697" type="line"/>
      <point x="392" y="10" type="line"/>
      <point x="334" y="0" type="line"/>
      <point x="353" y="80" type="line"/>
      <point x="311" y="48"/>
      <point x="246" y="6"/>
      <point x="167" y="6" type="curve" smooth="yes"/>
      <point x="74" y="6"/>
      <point x="36" y="75"/>
      <point x="36" y="158" type="curve" smooth="yes"/>
      <point x="36" y="344"/>
      <point x="158" y="495"/>
      <point x="315" y="495" type="curve" smooth="yes"/>
      <point x="370" y="495"/>
      <point x="413" y="479"/>
      <point x="442" y="464" type="curve"/>
    </contour>
    <contour>
      <point x="372" y="162" type="curve" smooth="yes"/>
      <point x="428" y="404" type="line"/>
      <point x="412" y="414"/>
      <point x="361" y="442"/>
      <point x="302" y="442" type="curve" smooth="yes"/>
      <point x="136" y="442"/>
      <point x="92" y="225"/>
      <point x="92" y="164" type="curve" smooth="yes"/>
      <point x="92" y="109"/>
      <point x="110" y="55"/>
      <point x="177" y="55" type="curve" smooth="yes"/>
      <point x="278" y="55"/>
      <point x="365" y="131"/>
    </contour>
  </outline>
</glyph>
<glyph name="f" format="1">
  <advance width="332"/>
  <unicode hex="0066"/>
  <outline>
    <contour>
      <point x="424" y="693" type="curve"/>
      <point x="390" y="640" type="line"/>
      <point x="378" y="640" type="line" smooth="yes"/>
      <point x="269" y="640"/>
      <point x="238" y="600"/>
      <point x="217" y="502" type="curve"/>
      <point x="348" y="502" type="line"/>
      <point x="325" y="451" type="line"/>
      <point x="201" y="451" type="line"/>
      <point x="108" y="10" type="line"/>
      <point x="50" y="0" type="line"/>
      <point x="145" y="451" type="line"/>
      <point x="60" y="451" type="line"/>
      <point x="80" y="502" type="line"/>
      <point x="156" y="502" type="line"/>
      <point x="186" y="642"/>
      <point x="259" y="694"/>
      <point x="393" y="694" type="curve" smooth="yes"/>
      <point x="403" y="694"/>
      <point x="412" y="694"/>
    </contour>
  </outline>
</glyph>
<glyph name="h" format="1">
  <advance width="504"/>
  <unicode hex="0068"/>
  <outline>
    <contour>
      <point x="107" y="196" type="curve" smooth="yes"/>
      <point x="68" y="10" type="line"/>
      <point x="10" y="0" type="line"/>
      <point x="154" y="681" type="line"/>
      <point x="213" y="692" type="line"/>
      <point x="137" y="336" type="line"/>
      <point x="190" y="416"/>
      <point x="287" y="505"/>
      <point x="371" y="505" type="curve" smooth="yes"/>
      <point x="434" y="505"/>
      <point x="460" y="461"/>
      <point x="460" y="374" type="curve" smooth="yes"/>
      <point x="460" y="315"/>
      <point x="449" y="238"/>
      <point x="428" y="142" type="curve" smooth="yes"/>
      <point x="414" y="78"/>
      <point x="402" y="28"/>
      <point x="398" y="10" type="curve"/>
      <point x="342" y="0" type="line"/>
      <point x="345" y="14"/>
      <point x="358" y="69"/>
      <point x="372" y="136" type="curve" smooth="yes"/>
      <point x="393" y="234"/>
      <point x="405" y="311"/>
      <point x="405" y="364" type="curve" smooth="yes"/>
      <point x="405" y="421"/>
      <point x="391" y="451"/>
      <point x="359" y="451" type="curve" smooth="yes"/>
      <point x="273" y="451"/>
      <point x="164" y="319"/>
      <point x="141" y="285" type="curve" smooth="yes"/>
      <point x="124" y="260"/>
      <point x="114" y="230"/>
    </contour>
  </outline>
</glyph>
<glyph name="j" format="1">
  <advance width="313"/>
  <unicode hex="006A"/>
  <outline>
    <contour>
      <point x="340" y="697" type="line"/>
      <point x="315" y="615" type="line"/>
      <point x="257" y="605" type="line"/>
      <point x="281" y="687" type="line"/>
    </contour>
    <contour>
      <point x="-97" y="-10" type="curve"/>
      <point x="-39" y="2" type="line"/>
      <point x="-31" y="-38"/>
      <point x="-5" y="-129"/>
      <point x="43" y="-129" type="curve" smooth="yes"/>
      <point x="88" y="-129"/>
      <point x="119" y="-73"/>
      <point x="134" y="-5" type="curve" smooth="yes"/>
      <point x="137" y="12"/>
      <point x="183" y="239"/>
      <point x="235" y="502" type="curve"/>
      <point x="295" y="513" type="line"/>
      <point x="241" y="247"/>
      <point x="196" y="17"/>
      <point x="193" y="0" type="curve"/>
      <point x="177" y="-72"/>
      <point x="130" y="-180"/>
      <point x="37" y="-180" type="curve" smooth="yes"/>
      <point x="-61" y="-180"/>
      <point x="-93" y="-27"/>
    </contour>
  </outline>
</glyph>
<glyph name="n" format="1">
  <advance width="536"/>
  <unicode hex="006E"/>
  <outline>
    <contour>
      <point x="172" y="502" type="line"/>
      <point x="129" y="297" type="line"/>
      <point x="174" y="411"/>
      <point x="276" y="501"/>
      <point x="377" y="501" type="curve" smooth="yes"/>
      <point x="447" y="501"/>
      <point x="482" y="462"/>
      <point x="482" y="383" type="curve" smooth="yes"/>
      <point x="482" y="323"/>
      <point x="465" y="241"/>
      <point x="439" y="115" type="curve" smooth="yes"/>
      <point x="418" y="12" type="line"/>
      <point x="362" y="0" type="line"/>
      <point x="385" y="114" type="line" smooth="yes"/>
      <point x="406" y="219"/>
      <point x="426" y="309"/>
      <point x="426" y="367" type="curve" smooth="yes"/>
      <point x="426" y="425"/>
      <point x="411" y="446"/>
      <point x="365" y="446" type="curve" smooth="yes"/>
      <point x="321" y="446"/>
      <point x="264" y="426"/>
      <point x="190" y="327" type="curve" smooth="yes"/>
      <point x="144" y="265"/>
      <point x="104" y="182"/>
      <point x="89" y="112" type="curve" smooth="yes"/>
      <point x="67" y="11" type="line"/>
      <point x="10" y="0" type="line"/>
      <point x="114" y="492" type="line"/>
    </contour>
  </outline>
</glyph>
<glyph name="v" format="1">
  <advance width="447"/>
  <unicode hex="0076"/>
  <outline>
    <contour>
      <point x="484" y="480" type="line"/>
      <point x="202" y="12" type="line"/>
      <point x="142" y="0" type="line"/>
      <point x="56" y="479" type="line"/>
      <point x="114" y="500" type="line"/>
      <point x="184" y="77" type="line"/>
      <point x="436" y="500" type="line"/>
    </contour>
  </outline>
</glyph>
<glyph name="x" format="1">
  <advance width="510"/>
  <unicode hex="0078"/>
  <outline>
    <contour>
      <point x="252" y="222" type="line"/>
      <point x="-5" y="2" type="line"/>
      <point x="-37" y="42" type="line"/>
      <point x="224" y="260" type="line"/>
      <point x="94" y="466" type="line"/>
      <point x="144" y="502" type="line"/>
      <point x="270" y="296" type="line"/>
      <point x="511" y="501" type="line"/>
      <point x="543" y="462" type="line"/>
      <point x="299" y="257" type="line"/>
      <point x="438" y="36" type="line"/>
      <point x="388" y="0" type="line"/>
    </contour>
  </outline>
</glyph>
<glyph name="braceleft" format="1">
  <advance width="374"/>
  <unicode hex="007B"/>
  <outline>
    <contour>
      <point x="86" y="325" type="curve"/>
      <point x="96" y="375" type="line"/>
      <point x="141" y="392"/>
      <point x="174" y="425"/>
      <point x="184" y="473" type="curve" smooth="yes"/>
      <point x="224" y="662" type="line" smooth="yes"/>
      <point x="248" y="776"/>
      <point x="368" y="809"/>
      <point x="429" y="810" type="curve"/>
      <point x="415" y="756" type="line"/>
      <point x="350" y="753"/>
      <point x="290" y="719"/>
      <point x="278" y="662" type="curve" smooth="yes"/>
      <point x="238" y="474" type="line" smooth="yes"/>
      <point x="231" y="442"/>
      <point x="212" y="390"/>
      <point x="153" y="350" type="curve"/>
      <point x="175" y="330"/>
      <point x="190" y="301"/>
      <point x="190" y="262" type="curve" smooth="yes"/>
      <point x="190" y="250"/>
      <point x="189" y="239"/>
      <point x="186" y="226" type="curve" smooth="yes"/>
      <point x="142" y="23" type="line" smooth="yes"/>
      <point x="141" y="16"/>
      <point x="140" y="10"/>
      <point x="140" y="4" type="curve" smooth="yes"/>
      <point x="140" y="-38"/>
      <point x="174" y="-65"/>
      <point x="242" y="-71" type="curve"/>
      <point x="229" y="-125" type="line"/>
      <point x="175" y="-123"/>
      <point x="84" y="-96"/>
      <point x="84" y="-9" type="curve" smooth="yes"/>
      <point x="84" y="1"/>
      <point x="85" y="12"/>
      <point x="88" y="23" type="curve"/>
      <point x="133" y="234" type="line" smooth="yes"/>
      <point x="134" y="240"/>
      <point x="135" y="247"/>
      <point x="135" y="253" type="curve" smooth="yes"/>
      <point x="135" y="286"/>
      <point x="115" y="313"/>
    </contour>
  </outline>
</glyph>
<glyph name="bar" format="1">
  <advance width="255"/>
  <unicode hex="007C"/>
  <outline>
    <contour>
      <point x="87" y="-61" type="line"/>
      <point x="30" y="-71" type="line"/>
      <point x="204" y="745" type="line"/>
      <point x="260" y="755" type="line"/>
    </contour>
  </outline>
</glyph>
<glyph name="asciitilde" format="1">
  <advance width="645"/>
  <unicode hex="007E"/>
  <outline>
    <contour>
      <point x="542" y="332" type="curve"/>
      <point x="587" y="308" type="line"/>
      <point x="567" y="271"/>
      <point x="498" y="150"/>
      <point x="396" y="150" type="curve" smooth="yes"/>
      <point x="337" y="150"/>
      <point x="313" y="193"/>
      <point x="292" y="232" type="curve" smooth="yes"/>
      <point x="273" y="266"/>
      <point x="256" y="298"/>
      <point x="223" y="298" type="curve" smooth="yes"/>
      <point x="152" y="298"/>
      <point x="105" y="199"/>
      <point x="98" y="184" type="curve"/>
      <point x="54" y="208" type="line"/>
      <point x="86" y="273"/>
      <point x="151" y="352"/>
      <point x="234" y="352" type="curve" smooth="yes"/>
      <point x="297" y="352"/>
      <point x="321" y="303"/>
      <point x="344" y="262" type="curve" smooth="yes"/>
      <point x="361" y="231"/>
      <point x="377" y="204"/>
      <point x="408" y="204" type="curve" smooth="yes"/>
      <point x="451" y="204"/>
      <point x="507" y="258"/>
    </contour>
  </outline>
</glyph>
<glyph name="exclamdown" format="1">
  <advance width="185"/>
  <unicode hex="00A1"/>
  <outline>
    <contour>
      <point x="73" y="341" type="line"/>
      <point x="129" y="352" type="line"/>
      <point x="16" y="-182" type="line"/>
      <point x="-40" y="-192" type="line"/>
    </contour>
    <contour>
      <point x="85" y="408" type="line"/>
      <point x="110" y="490" type="line"/>
      <point x="168" y="500" type="line"/>
      <point x="143" y="418" type="line"/>
    </contour>
  </outline>
</glyph>
<glyph name="cent" format="1">
  <advance width="506"/>
  <unicode hex="00A2"/>
  <outline>
    <contour>
      <point x="239" y="97" type="curve"/>
      <point x="220" y="17" type="line"/>
      <point x="170" y="0" type="line"/>
      <point x="194" y="101" type="line"/>
      <point x="100" y="128"/>
      <point x="57" y="190"/>
      <point x="57" y="267" type="curve" smooth="yes"/>
      <point x="57" y="387"/>
      <point x="166" y="554"/>
      <point x="311" y="595" type="curve"/>
      <point x="329" y="670" type="line"/>
      <point x="380" y="688" type="line"/>
      <point x="359" y="599" type="line"/>
      <point x="415" y="597"/>
      <point x="460" y="570"/>
      <point x="483" y="527" type="curve"/>
      <point x="434" y="488" type="line"/>
      <point x="420" y="523"/>
      <point x="387" y="544"/>
      <point x="346" y="547" type="curve"/>
      <point x="251" y="149" type="line"/>
      <point x="312" y="149"/>
      <point x="375" y="186"/>
      <point x="411" y="234" type="curve"/>
      <point x="442" y="194" type="line"/>
      <point x="393" y="138"/>
      <point x="320" y="100"/>
    </contour>
    <contour>
      <point x="206" y="154" type="curve"/>
      <point x="298" y="540" type="line"/>
      <point x="208" y="505"/>
      <point x="112" y="384"/>
      <point x="112" y="279" type="curve" smooth="yes"/>
      <point x="112" y="225"/>
      <point x="140" y="178"/>
    </contour>
  </outline>
</glyph>
<glyph name="sterling" format="1">
  <advance width="764"/>
  <unicode hex="00A3"/>
  <outline>
    <contour>
      <point x="614" y="155" type="curve"/>
      <point x="666" y="148" type="line"/>
      <point x="618" y="7"/>
      <point x="518" y="-10"/>
      <point x="473" y="-10" type="curve" smooth="yes"/>
      <point x="421" y="-10"/>
      <point x="367" y="11"/>
      <point x="323" y="52" type="curve" smooth="yes"/>
      <point x="308" y="66"/>
      <point x="289" y="71"/>
      <point x="269" y="71" type="curve" smooth="yes"/>
      <point x="245" y="71"/>
      <point x="178" y="55"/>
      <point x="112" y="0" type="curve"/>
      <point x="85" y="41" type="line"/>
      <point x="196" y="117"/>
      <point x="216" y="199"/>
      <point x="216" y="269" type="curve" smooth="yes"/>
      <point x="216" y="286"/>
      <point x="215" y="305"/>
      <point x="213" y="328" type="curve"/>
      <point x="87" y="328" type="line"/>
      <point x="108" y="381" type="line"/>
      <point x="210" y="381" type="line"/>
      <point x="223" y="609"/>
      <point x="332" y="726"/>
      <point x="510" y="726" type="curve" smooth="yes"/>
      <point x="657" y="726"/>
      <point x="692" y="623"/>
      <point x="692" y="548" type="curve" smooth="yes"/>
      <point x="692" y="537"/>
      <point x="691" y="526"/>
      <point x="690" y="517" type="curve"/>
      <point x="636" y="513" type="line"/>
      <point x="637" y="521"/>
      <point x="637" y="528"/>
      <point x="637" y="536" type="curve" smooth="yes"/>
      <point x="637" y="620"/>
      <point x="595" y="672"/>
      <point x="491" y="672" type="curve" smooth="yes"/>
      <point x="324" y="672"/>
      <point x="270" y="529"/>
      <point x="265" y="381" type="curve"/>
      <point x="526" y="381" type="line"/>
      <point x="505" y="328" type="line"/>
      <point x="266" y="328" type="line"/>
      <point x="268" y="303"/>
      <point x="268" y="282"/>
      <point x="268" y="265" type="curve" smooth="yes"/>
      <point x="268" y="201"/>
      <point x="259" y="170"/>
      <point x="226" y="117" type="curve"/>
      <point x="245" y="122"/>
      <point x="263" y="125"/>
      <point x="280" y="125" type="curve" smooth="yes"/>
      <point x="313" y="125"/>
      <point x="342" y="114"/>
      <point x="364" y="94" type="curve" smooth="yes"/>
      <point x="399" y="61"/>
      <point x="444" y="44"/>
      <point x="485" y="44" type="curve" smooth="yes"/>
      <point x="545" y="44"/>
      <point x="589" y="81"/>
    </contour>
  </outline>
</glyph>
<glyph name="section" format="1">
  <advance width="475"/>
  <unicode hex="00A7"/>
  <outline>
    <contour>
      <point x="421" y="318" type="curve" smooth="yes"/>
      <point x="421" y="282"/>
      <point x="407" y="249"/>
      <point x="382" y="218" type="curve"/>
      <point x="388" y="206"/>
      <point x="391" y="193"/>
      <point x="391" y="177" type="curve" smooth="yes"/>
      <point x="391" y="96"/>
      <point x="318" y="0"/>
      <point x="187" y="0" type="curve" smooth="yes"/>
      <point x="74" y="0"/>
      <point x="31" y="81"/>
      <point x="31" y="120" type="curve" smooth="yes"/>
      <point x="31" y="123"/>
      <point x="31" y="126"/>
      <point x="32" y="129" type="curve"/>
      <point x="86" y="137" type="line"/>
      <point x="93" y="82"/>
      <point x="141" y="53"/>
      <point x="186" y="53" type="curve" smooth="yes"/>
      <point x="325" y="53"/>
      <point x="337" y="146"/>
      <point x="337" y="162" type="curve" smooth="yes"/>
      <point x="337" y="194"/>
      <point x="314" y="216"/>
      <point x="238" y="241" type="curve" smooth="yes"/>
      <point x="153" y="269"/>
      <point x="112" y="300"/>
      <point x="112" y="354" type="curve" smooth="yes"/>
      <point x="112" y="397"/>
      <point x="131" y="429"/>
      <point x="155" y="452" type="curve"/>
      <point x="146" y="466"/>
      <point x="141" y="482"/>
      <point x="141" y="500" type="curve" smooth="yes"/>
      <point x="141" y="612"/>
      <point x="266" y="644"/>
      <point x="339" y="644" type="curve" smooth="yes"/>
      <point x="431" y="644"/>
      <point x="474" y="606"/>
      <point x="474" y="554" type="curve" smooth="yes"/>
      <point x="474" y="537"/>
      <point x="467" y="517"/>
      <point x="463" y="507" type="curve"/>
      <point x="413" y="515" type="line"/>
      <point x="414" y="520"/>
      <point x="419" y="533"/>
      <point x="419" y="544" type="curve" smooth="yes"/>
      <point x="419" y="574"/>
      <point x="393" y="594"/>
      <point x="332" y="594" type="curve" smooth="yes"/>
      <point x="254" y="594"/>
      <point x="194" y="564"/>
      <point x="194" y="510" type="curve" smooth="yes"/>
      <point x="194" y="463"/>
      <point x="250" y="447"/>
      <point x="284" y="436" type="curve" smooth="yes"/>
      <point x="360" y="410"/>
      <point x="421" y="389"/>
    </contour>
    <contour>
      <point x="349" y="253" type="curve"/>
      <point x="366" y="276"/>
      <point x="367" y="294"/>
      <point x="367" y="306" type="curve" smooth="yes"/>
      <point x="366" y="338"/>
      <point x="343" y="359"/>
      <point x="267" y="384" type="curve" smooth="yes"/>
      <point x="235" y="394"/>
      <point x="209" y="406"/>
      <point x="190" y="419" type="curve"/>
      <point x="174" y="405"/>
      <point x="164" y="387"/>
      <point x="164" y="367" type="curve" smooth="yes"/>
      <point x="164" y="320"/>
      <point x="220" y="304"/>
      <point x="255" y="293" type="curve" smooth="yes"/>
      <point x="291" y="281"/>
      <point x="325" y="269"/>
    </contour>
  </outline>
</glyph>
<glyph name="dieresis" format="1">
  <advance width="500"/>
  <unicode hex="00A8"/>
  <outline>
    <contour>
      <point x="296" y="663" type="line"/>
      <point x="271" y="581" type="line"/>
      <point x="195" y="571" type="line"/>
      <point x="221" y="653" type="line"/>
    </contour>
    <contour>
      <point x="456" y="663" type="line"/>
      <point x="431" y="581" type="line"/>
      <point x="355" y="571" type="line"/>
      <point x="381" y="653" type="line"/>
    </contour>
  </outline>
</glyph>
<glyph name="macron" format="1">
  <advance width="500"/>
  <unicode hex="00AF"/>
  <outline>
    <contour>
      <point x="440" y="587" type="line"/>
      <point x="188" y="587" type="line"/>
      <point x="210" y="641" type="line"/>
      <point x="462" y="641" type="line"/>
    </contour>
  </outline>
</glyph>
<glyph name="plusminus" format="1">
  <advance width="435"/>
  <unicode hex="00B1"/>
  <outline>
    <contour>
      <point x="394" y="324" type="line"/>
      <point x="372" y="270" type="line"/>
      <point x="246" y="270" type="line"/>
      <point x="219" y="144" type="line"/>
      <point x="163" y="134" type="line"/>
      <point x="192" y="270" type="line"/>
      <point x="56" y="270" type="line"/>
      <point x="77" y="324" type="line"/>
      <point x="203" y="324" type="line"/>
      <point x="229" y="445" type="line"/>
      <point x="285" y="456" type="line"/>
      <point x="257" y="324" type="line"/>
    </contour>
    <contour>
      <point x="12" y="0" type="line"/>
      <point x="33" y="52" type="line"/>
      <point x="322" y="52" type="line"/>
      <point x="301" y="0" type="line"/>
    </contour>
  </outline>
</glyph>
<glyph name="twosuperior" format="1">
  <advance width="237"/>
  <unicode hex="00B2"/>
  <outline>
    <contour>
      <point x="129" y="718" type="curve"/>
      <point x="105" y="754" type="line"/>
      <point x="135" y="789"/>
      <point x="188" y="821"/>
      <point x="239" y="821" type="curve" smooth="yes"/>
      <point x="310" y="821"/>
      <point x="330" y="779"/>
      <point x="330" y="744" type="curve" smooth="yes"/>
      <point x="330" y="677"/>
      <point x="254" y="622"/>
      <point x="194" y="588" type="curve" smooth="yes"/>
      <point x="140" y="558"/>
      <point x="113" y="533"/>
      <point x="96" y="484" type="curve"/>
      <point x="284" y="484" type="line"/>
      <point x="267" y="439" type="line"/>
      <point x="41" y="439" type="line"/>
      <point x="45" y="461" type="line" smooth="yes"/>
      <point x="60" y="544"/>
      <point x="102" y="581"/>
      <point x="177" y="625" type="curve" smooth="yes"/>
      <point x="252" y="668"/>
      <point x="284" y="700"/>
      <point x="284" y="733" type="curve" smooth="yes"/>
      <point x="284" y="760"/>
      <point x="258" y="775"/>
      <point x="229" y="775" type="curve" smooth="yes"/>
      <point x="200" y="775"/>
      <point x="163" y="760"/>
    </contour>
  </outline>
</glyph>
<glyph name="threesuperior" format="1">
  <advance width="236"/>
  <unicode hex="00B3"/>
  <outline>
    <contour>
      <point x="143" y="738" type="curve"/>
      <point x="119" y="771" type="line"/>
      <point x="143" y="791"/>
      <point x="184" y="818"/>
      <point x="234" y="818" type="curve" smooth="yes"/>
      <point x="291" y="818"/>
      <point x="329" y="787"/>
      <point x="329" y="746" type="curve" smooth="yes"/>
      <point x="329" y="708"/>
      <point x="302" y="674"/>
      <point x="264" y="653" type="curve"/>
      <point x="288" y="635"/>
      <point x="302" y="613"/>
      <point x="302" y="582" type="curve" smooth="yes"/>
      <point x="302" y="477"/>
      <point x="202" y="438"/>
      <point x="157" y="438" type="curve" smooth="yes"/>
      <point x="115" y="438"/>
      <point x="60" y="456"/>
      <point x="56" y="523" type="curve"/>
      <point x="102" y="541" type="line"/>
      <point x="102" y="504"/>
      <point x="123" y="483"/>
      <point x="166" y="483" type="curve" smooth="yes"/>
      <point x="184" y="483"/>
      <point x="256" y="498"/>
      <point x="256" y="572" type="curve" smooth="yes"/>
      <point x="256" y="604"/>
      <point x="231" y="627"/>
      <point x="172" y="627" type="curve" smooth="yes"/>
      <point x="163" y="627" type="line"/>
      <point x="169" y="671" type="line"/>
      <point x="201" y="671"/>
      <point x="282" y="685"/>
      <point x="282" y="737" type="curve" smooth="yes"/>
      <point x="282" y="759"/>
      <point x="255" y="773"/>
      <point x="225" y="773" type="curve" smooth="yes"/>
      <point x="202" y="773"/>
      <point x="173" y="763"/>
    </contour>
  </outline>
</glyph>
<glyph name="acute" format="1">
  <advance width="500"/>
  <unicode hex="00B4"/>
  <outline>
    <contour>
      <point x="221" y="602" type="line"/>
      <point x="397" y="724" type="line"/>
      <point x="440" y="679" type="line"/>
      <point x="254" y="567" type="line"/>
    </contour>
  </outline>
</glyph>
<glyph name="periodcentered" format="1">
  <advance width="500"/>
  <unicode hex="00B7"/>
  <outline>
    <contour>
      <point x="299" y="299" type="line"/>
      <point x="274" y="217" type="line"/>
      <point x="197" y="207" type="line"/>
      <point x="224" y="289" type="line"/>
    </contour>
  </outline>
</glyph>
<glyph name="onesuperior" format="1">
  <advance width="179"/>
  <unicode hex="00B9"/>
  <outline>
    <contour>
      <point x="50" y="454" type="line"/>
      <point x="69" y="500" type="line"/>
      <point x="129" y="500" type="line"/>
      <point x="186" y="752" type="line"/>
      <point x="124" y="705" type="line"/>
      <point x="102" y="739" type="line"/>
      <point x="255" y="856" type="line"/>
      <point x="175" y="500" type="line"/>
      <point x="230" y="500" type="line"/>
      <point x="212" y="454" type="line"/>
    </contour>
  </outline>
</glyph>
<glyph name="Aacute" format="1">
  <advance width="623"/>
  <unicode hex="00C1"/>
  <outline>
    <contour>
      <point x="449" y="680" type="line"/>
      <point x="525" y="33" type="line"/>
      <point x="471" y="1" type="line"/>
      <point x="440" y="261" type="line"/>
      <point x="164" y="206" type="line"/>
      <point x="44" y="0" type="line"/>
      <point x="0" y="26" type="line"/>
      <point x="97" y="192" type="line"/>
      <point x="55" y="184" type="line"/>
      <point x="55" y="238" type="line"/>
      <point x="133" y="253" type="line"/>
      <point x="376" y="667" type="line"/>
    </contour>
    <contour>
      <point x="200" y="267" type="line"/>
      <point x="434" y="313" type="line"/>
      <point x="400" y="607" type="line"/>
    </contour>
    <contour>
      <point x="334" y="771" type="line"/>
      <point x="510" y="893" type="line"/>
      <point x="553" y="848" type="line"/>
      <point x="367" y="736" type="line"/>
    </contour>
  </outline>
</glyph>
<glyph name="Adieresis" format="1">
  <advance width="623"/>
  <unicode hex="00C4"/>
  <outline>
    <contour>
      <point x="449" y="680" type="line"/>
      <point x="525" y="33" type="line"/>
      <point x="471" y="1" type="line"/>
      <point x="440" y="261" type="line"/>
      <point x="164" y="206" type="line"/>
      <point x="44" y="0" type="line"/>
      <point x="0" y="26" type="line"/>
      <point x="97" y="192" type="line"/>
      <point x="55" y="184" type="line"/>
      <point x="55" y="238" type="line"/>
      <point x="133" y="253" type="line"/>
      <point x="376" y="667" type="line"/>
    </contour>
    <contour>
      <point x="200" y="267" type="line"/>
      <point x="434" y="313" type="line"/>
      <point x="400" y="607" type="line"/>
    </contour>
    <contour>
      <point x="411" y="819" type="line"/>
      <point x="385" y="737" type="line"/>
      <point x="309" y="727" type="line"/>
      <point x="335" y="809" type="line"/>
    </contour>
    <contour>
      <point x="572" y="819" type="line"/>
      <point x="546" y="737" type="line"/>
      <point x="470" y="727" type="line"/>
      <point x="496" y="809" type="line"/>
    </contour>
  </outline>
</glyph>
<glyph name="Ccedilla" format="1">
  <advance width="631"/>
  <unicode hex="00C7"/>
  <outline>
    <contour>
      <point x="255" y="-159" type="curve" smooth="yes"/>
      <point x="285" y="-159"/>
      <point x="315" y="-131"/>
      <point x="315" y="-99" type="curve" smooth="yes"/>
      <point x="315" y="-77"/>
      <point x="299" y="-61"/>
      <point x="276" y="-61" type="curve" smooth="yes"/>
      <point x="263" y="-61"/>
      <point x="247" y="-67"/>
      <point x="241" y="-72" type="curve"/>
      <point x="219" y="-42" type="line"/>
      <point x="243" y="1" type="line"/>
      <point x="127" y="15"/>
      <point x="50" y="105"/>
      <point x="50" y="227" type="curve" smooth="yes"/>
      <point x="50" y="383"/>
      <point x="229" y="681"/>
      <point x="435" y="681" type="curve" smooth="yes"/>
      <point x="491" y="681"/>
      <point x="539" y="665"/>
      <point x="572" y="635" type="curve"/>
      <point x="577" y="658" type="line"/>
      <point x="623" y="658" type="line"/>
      <point x="598" y="539" type="line"/>
      <point x="552" y="539" type="line"/>
      <point x="557" y="564" type="line"/>
      <point x="537" y="594"/>
      <point x="499" y="628"/>
      <point x="418" y="628" type="curve" smooth="yes"/>
      <point x="262" y="628"/>
      <point x="104" y="366"/>
      <point x="104" y="241" type="curve" smooth="yes"/>
      <point x="104" y="134"/>
      <point x="179" y="52"/>
      <point x="290" y="52" type="curve" smooth="yes"/>
      <point x="384" y="52"/>
      <point x="467" y="94"/>
      <point x="523" y="170" type="curve"/>
      <point x="553" y="131" type="line"/>
      <point x="486" y="49"/>
      <point x="381" y="-1"/>
      <point x="277" y="-1" type="curve"/>
      <point x="273" y="-19" type="line"/>
      <point x="277" y="-19" type="line" smooth="yes"/>
      <point x="325" y="-19"/>
      <point x="358" y="-46"/>
      <point x="358" y="-89" type="curve" smooth="yes"/>
      <point x="358" y="-148"/>
      <point x="303" y="-201"/>
      <point x="246" y="-201" type="curve" smooth="yes"/>
      <point x="217" y="-201"/>
      <point x="194" y="-188"/>
      <point x="181" y="-166" type="curve"/>
      <point x="218" y="-136" type="line"/>
      <point x="220" y="-149"/>
      <point x="239" y="-159"/>
    </contour>
  </outline>
</glyph>
<glyph name="Egrave" format="1">
  <advance width="611"/>
  <unicode hex="00C8"/>
  <outline>
    <contour>
      <point x="77" y="56" type="line"/>
      <point x="507" y="56" type="line"/>
      <point x="476" y="0" type="line"/>
      <point x="10" y="0" type="line"/>
      <point x="154" y="681" type="line"/>
      <point x="635" y="681" type="line"/>
      <point x="613" y="625" type="line"/>
      <point x="198" y="625" type="line"/>
      <point x="147" y="382" type="line"/>
      <point x="532" y="382" type="line"/>
      <point x="503" y="326" type="line"/>
      <point x="135" y="326" type="line"/>
    </contour>
    <contour>
      <point x="480" y="754" type="line"/>
      <point x="428" y="726" type="line"/>
      <point x="318" y="866" type="line"/>
      <point x="385" y="900" type="line"/>
    </contour>
  </outline>
</glyph>
<glyph name="Eacute" format="1">
  <advance width="611"/>
  <unicode hex="00C9"/>
  <outline>
    <contour>
      <point x="77" y="56" type="line"/>
      <point x="507" y="56" type="line"/>
      <point x="476" y="0" type="line"/>
      <point x="10" y="0" type="line"/>
      <point x="154" y="681" type="line"/>
      <point x="635" y="681" type="line"/>
      <point x="613" y="625" type="line"/>
      <point x="198" y="625" type="line"/>
      <point x="147" y="382" type="line"/>
      <point x="532" y="382" type="line"/>
      <point x="503" y="326" type="line"/>
      <point x="135" y="326" type="line"/>
    </contour>
    <contour>
      <point x="306" y="771" type="line"/>
      <point x="482" y="893" type="line"/>
      <point x="526" y="848" type="line"/>
      <point x="340" y="736" type="line"/>
    </contour>
  </outline>
</glyph>
<glyph name="Ecircumflex" format="1">
  <advance width="611"/>
  <unicode hex="00CA"/>
  <outline>
    <contour>
      <point x="77" y="56" type="line"/>
      <point x="507" y="56" type="line"/>
      <point x="476" y="0" type="line"/>
      <point x="10" y="0" type="line"/>
      <point x="154" y="681" type="line"/>
      <point x="635" y="681" type="line"/>
      <point x="613" y="625" type="line"/>
      <point x="198" y="625" type="line"/>
      <point x="147" y="382" type="line"/>
      <point x="532" y="382" type="line"/>
      <point x="503" y="326" type="line"/>
      <point x="135" y="326" type="line"/>
    </contour>
    <contour>
      <point x="297" y="718" type="line"/>
      <point x="273" y="760" type="line"/>
      <point x="449" y="881" type="line"/>
      <point x="552" y="759" type="line"/>
      <point x="507" y="719" type="line"/>
      <point x="430" y="806" type="line"/>
    </contour>
  </outline>
</glyph>
<glyph name="Igrave" format="1">
  <advance width="437"/>
  <unicode hex="00CC"/>
  <outline>
    <contour>
      <point x="444" y="625" type="line"/>
      <point x="326" y="625" type="line"/>
      <point x="205" y="56" type="line"/>
      <point x="333" y="56" type="line"/>
      <point x="312" y="0" type="line"/>
      <point x="5" y="0" type="line"/>
      <point x="26" y="56" type="line"/>
      <point x="149" y="56" type="line"/>
      <point x="270" y="625" type="line"/>
      <point x="137" y="625" type="line"/>
      <point x="159" y="681" type="line"/>
      <point x="466" y="681" type="line"/>
    </contour>
    <contour>
      <point x="409" y="754" type="line"/>
      <point x="357" y="726" type="line"/>
      <point x="247" y="866" type="line"/>
      <point x="314" y="900" type="line"/>
    </contour>
  </outline>
</glyph>
<glyph name="Iacute" format="1">
  <advance width="437"/>
  <unicode hex="00CD"/>
  <outline>
    <contour>
      <point x="444" y="625" type="line"/>
      <point x="326" y="625" type="line"/>
      <point x="205" y="56" type="line"/>
      <point x="333" y="56" type="line"/>
      <point x="312" y="0" type="line"/>
      <point x="5" y="0" type="line"/>
      <point x="26" y="56" type="line"/>
      <point x="149" y="56" type="line"/>
      <point x="270" y="625" type="line"/>
      <point x="137" y="625" type="line"/>
      <point x="159" y="681" type="line"/>
      <point x="466" y="681" type="line"/>
    </contour>
    <contour>
      <point x="232" y="771" type="line"/>
      <point x="408" y="893" type="line"/>
      <point x="452" y="848" type="line"/>
      <point x="266" y="736" type="line"/>
    </contour>
  </outline>
</glyph>
<glyph name="Idieresis" format="1">
  <advance width="437"/>
  <unicode hex="00CF"/>
  <outline>
    <contour>
      <point x="444" y="625" type="line"/>
      <point x="326" y="625" type="line"/>
      <point x="205" y="56" type="line"/>
      <point x="333" y="56" type="line"/>
      <point x="312" y="0" type="line"/>
      <point x="5" y="0" type="line"/>
      <point x="26" y="56" type="line"/>
      <point x="149" y="56" type="line"/>
      <point x="270" y="625" type="line"/>
      <point x="137" y="625" type="line"/>
      <point x="159" y="681" type="line"/>
      <point x="466" y="681" type="line"/>
    </contour>
    <contour>
      <point x="304" y="819" type="line"/>
      <point x="278" y="737" type="line"/>
      <point x="202" y="727" type="line"/>
      <point x="228" y="809" type="line"/>
    </contour>
    <contour>
      <point x="465" y="819" type="line"/>
      <point x="439" y="737" type="line"/>
      <point x="363" y="727" type="line"/>
      <point x="389" y="809" type="line"/>
    </contour>
  </outline>
</glyph>
<glyph name="Ntilde" format="1">
  <advance width="615"/>
  <unicode hex="00D1"/>
  <outline>
    <contour>
      <point x="584" y="671" type="line"/>
      <point x="639" y="681" type="line"/>
      <point x="497" y="13" type="line"/>
      <point x="431" y="0" type="line"/>
      <point x="188" y="588" type="line"/>
      <point x="66" y="12" type="line"/>
      <point x="11" y="1" type="line"/>
      <point x="151" y="664" type="line"/>
      <point x="213" y="681" type="line"/>
      <point x="460" y="88" type="line"/>
    </contour>
    <contour>
      <point x="485" y="762" type="curve" smooth="yes"/>
      <point x="518" y="762"/>
      <point x="554" y="824"/>
      <point x="569" y="853" type="curve"/>
      <point x="614" y="837" type="line"/>
      <point x="586" y="772"/>
      <point x="528" y="721"/>
      <point x="477" y="721" type="curve" smooth="yes"/>
      <point x="429" y="721"/>
      <point x="410" y="758"/>
      <point x="396" y="789" type="curve" smooth="yes"/>
      <point x="386" y="811"/>
      <point x="378" y="829"/>
      <point x="364" y="829" type="curve" smooth="yes"/>
      <point x="333" y="829"/>
      <point x="296" y="770"/>
      <point x="285" y="745" type="curve"/>
      <point x="240" y="763" type="line"/>
      <point x="266" y="813"/>
      <point x="311" y="870"/>
      <point x="372" y="870" type="curve" smooth="yes"/>
      <point x="426" y="870"/>
      <point x="443" y="826"/>
      <point x="457" y="794" type="curve" smooth="yes"/>
      <point x="465" y="776"/>
      <point x="472" y="762"/>
    </contour>
  </outline>
</glyph>
<glyph name="Oacute" format="1">
  <advance width="660"/>
  <unicode hex="00D3"/>
  <outline>
    <contour>
      <point x="370" y="771" type="line"/>
      <point x="546" y="893" type="line"/>
      <point x="590" y="848" type="line"/>
      <point x="404" y="736" type="line"/>
    </contour>
    <contour>
      <point x="254" y="0" type="curve" smooth="yes"/>
      <point x="133" y="0"/>
      <point x="62" y="100"/>
      <point x="62" y="232" type="curve" smooth="yes"/>
      <point x="62" y="465"/>
      <point x="267" y="684"/>
      <point x="441" y="684" type="curve" smooth="yes"/>
      <point x="561" y="684"/>
      <point x="632" y="585"/>
      <point x="632" y="453" type="curve" smooth="yes"/>
      <point x="632" y="219"/>
      <point x="428" y="0"/>
    </contour>
    <contour>
      <point x="423" y="632" type="curve" smooth="yes"/>
      <point x="289" y="632"/>
      <point x="116" y="449"/>
      <point x="116" y="241" type="curve" smooth="yes"/>
      <point x="116" y="132"/>
      <point x="171" y="52"/>
      <point x="265" y="52" type="curve" smooth="yes"/>
      <point x="402" y="52"/>
      <point x="576" y="236"/>
      <point x="576" y="435" type="curve" smooth="yes"/>
      <point x="576" y="542"/>
      <point x="521" y="632"/>
    </contour>
  </outline>
</glyph>
<glyph name="multiply" format="1">
  <advance width="354"/>
  <unicode hex="00D7"/>
  <outline>
    <contour>
      <point x="213" y="253" type="line"/>
      <point x="279" y="168" type="line"/>
      <point x="234" y="131" type="line"/>
      <point x="168" y="215" type="line"/>
      <point x="63" y="129" type="line"/>
      <point x="34" y="166" type="line"/>
      <point x="139" y="253" type="line"/>
      <point x="78" y="331" type="line"/>
      <point x="123" y="368" type="line"/>
      <point x="184" y="290" type="line"/>
      <point x="287" y="375" type="line"/>
      <point x="316" y="338" type="line"/>
    </contour>
  </outline>
</glyph>
<glyph name="Uacute" format="1">
  <advance width="684"/>
  <unicode hex="00DA"/>
  <outline>
    <contour>
      <point x="287" y="0" type="curve" smooth="yes"/>
      <point x="128" y="0"/>
      <point x="77" y="88"/>
      <point x="77" y="225" type="curve" smooth="yes"/>
      <point x="77" y="346"/>
      <point x="132" y="572"/>
      <point x="155" y="670" type="curve"/>
      <point x="214" y="680" type="line"/>
      <point x="195" y="612"/>
      <point x="133" y="364"/>
      <point x="133" y="237" type="curve" smooth="yes"/>
      <point x="133" y="127"/>
      <point x="172" y="49"/>
      <point x="297" y="49" type="curve" smooth="yes"/>
      <point x="501" y="49"/>
      <point x="562" y="260"/>
      <point x="598" y="431" type="curve" smooth="yes"/>
      <point x="616" y="514"/>
      <point x="640" y="634"/>
      <point x="647" y="669" type="curve"/>
      <point x="705" y="680" type="line"/>
      <point x="700" y="656"/>
      <point x="679" y="550"/>
      <point x="664" y="476" type="curve" smooth="yes"/>
      <point x="615" y="245"/>
      <point x="542" y="0"/>
    </contour>
    <contour>
      <point x="372" y="771" type="line"/>
      <point x="548" y="893" type="line"/>
      <point x="592" y="848" type="line"/>
      <point x="406" y="736" type="line"/>
    </contour>
  </outline>
</glyph>
<glyph name="Yacute" format="1">
  <advance width="628"/>
  <unicode hex="00DD"/>
  <outline>
    <contour>
      <point x="323" y="266" type="line"/>
      <point x="654" y="677" type="line"/>
      <point x="716" y="677" type="line"/>
      <point x="171" y="0" type="line"/>
      <point x="109" y="0" type="line"/>
      <point x="280" y="214" type="line"/>
      <point x="108" y="677" type="line"/>
      <point x="170" y="677" type="line"/>
    </contour>
    <contour>
      <point x="344" y="771" type="line"/>
      <point x="520" y="893" type="line"/>
      <point x="564" y="848" type="line"/>
      <point x="378" y="736" type="line"/>
    </contour>
  </outline>
</glyph>
<glyph name="Thorn" format="1">
  <advance width="506"/>
  <unicode hex="00DE"/>
  <outline>
    <contour>
      <point x="153" y="674" type="line"/>
      <point x="210" y="686" type="line"/>
      <point x="187" y="576" type="line"/>
      <point x="314" y="576"/>
      <point x="506" y="562"/>
      <point x="506" y="418" type="curve" smooth="yes"/>
      <point x="506" y="207"/>
      <point x="242" y="152"/>
      <point x="93" y="143" type="curve"/>
      <point x="65" y="12" type="line"/>
      <point x="10" y="0" type="line"/>
    </contour>
    <contour>
      <point x="106" y="202" type="line"/>
      <point x="292" y="210"/>
      <point x="449" y="277"/>
      <point x="449" y="401" type="curve" smooth="yes"/>
      <point x="449" y="488"/>
      <point x="337" y="519"/>
      <point x="175" y="519" type="curve"/>
    </contour>
  </outline>
</glyph>
<glyph name="aacute" format="1">
  <advance width="504"/>
  <unicode hex="00E1"/>
  <outline>
    <contour>
      <point x="484" y="472" type="curve"/>
      <point x="386" y="11" type="line"/>
      <point x="328" y="0" type="line"/>
      <point x="339" y="54" type="line"/>
      <point x="300" y="33"/>
      <point x="240" y="7"/>
      <point x="184" y="7" type="curve" smooth="yes"/>
      <point x="92" y="7"/>
      <point x="35" y="69"/>
      <point x="35" y="164" type="curve" smooth="yes"/>
      <point x="35" y="310"/>
      <point x="172" y="513"/>
      <point x="341" y="513" type="curve" smooth="yes"/>
      <point x="396" y="513"/>
      <point x="444" y="495"/>
    </contour>
    <contour>
      <point x="194" y="62" type="curve" smooth="yes"/>
      <point x="254" y="62"/>
      <point x="325" y="103"/>
      <point x="351" y="120" type="curve"/>
      <point x="423" y="436" type="line"/>
      <point x="406" y="444"/>
      <point x="368" y="458"/>
      <point x="334" y="458" type="curve" smooth="yes"/>
      <point x="158" y="458"/>
      <point x="94" y="235"/>
      <point x="94" y="178" type="curve" smooth="yes"/>
      <point x="94" y="119"/>
      <point x="119" y="63"/>
    </contour>
    <contour>
      <point x="240" y="602" type="line"/>
      <point x="416" y="724" type="line"/>
      <point x="459" y="679" type="line"/>
      <point x="273" y="567" type="line"/>
    </contour>
  </outline>
</glyph>
<glyph name="atilde" format="1">
  <advance width="513"/>
  <unicode hex="00E3"/>
  <outline>
    <contour>
      <point x="484" y="472" type="curve"/>
      <point x="386" y="11" type="line"/>
      <point x="328" y="0" type="line"/>
      <point x="339" y="54" type="line"/>
      <point x="300" y="33"/>
      <point x="240" y="7"/>
      <point x="184" y="7" type="curve" smooth="yes"/>
      <point x="92" y="7"/>
      <point x="35" y="69"/>
      <point x="35" y="164" type="curve" smooth="yes"/>
      <point x="35" y="310"/>
      <point x="172" y="513"/>
      <point x="341" y="513" type="curve" smooth="yes"/>
      <point x="396" y="513"/>
      <point x="444" y="495"/>
    </contour>
    <contour>
      <point x="194" y="62" type="curve" smooth="yes"/>
      <point x="254" y="62"/>
      <point x="325" y="103"/>
      <point x="351" y="120" type="curve"/>
      <point x="423" y="436" type="line"/>
      <point x="406" y="444"/>
      <point x="368" y="458"/>
      <point x="334" y="458" type="curve" smooth="yes"/>
      <point x="158" y="458"/>
      <point x="94" y="235"/>
      <point x="94" y="178" type="curve" smooth="yes"/>
      <point x="94" y="119"/>
      <point x="119" y="63"/>
    </contour>
    <contour>
      <point x="406" y="597" type="curve" smooth="yes"/>
      <point x="439" y="597"/>
      <point x="475" y="659"/>
      <point x="490" y="688" type="curve"/>
      <point x="535" y="672" type="line"/>
      <point x="507" y="607"/>
      <point x="449" y="556"/>
      <point x="398" y="556" type="curve" smooth="yes"/>
      <point x="350" y="556"/>
      <point x="331" y="593"/>
      <point x="317" y="624" type="curve" smooth="yes"/>
      <point x="307" y="646"/>
      <point x="299" y="664"/>
      <point x="285" y="664" type="curve" smooth="yes"/>
      <point x="254" y="664"/>
      <point x="217" y="605"/>
      <point x="206" y="580" type="curve"/>
      <point x="161" y="598" type="line"/>
      <point x="187" y="648"/>
      <point x="232" y="705"/>
      <point x="293" y="705" type="curve" smooth="yes"/>
      <point x="347" y="705"/>
      <point x="364" y="661"/>
      <point x="378" y="629" type="curve" smooth="yes"/>
      <point x="386" y="611"/>
      <point x="393" y="597"/>
    </contour>
  </outline>
</glyph>
<glyph name="aring" format="1">
  <advance width="504"/>
  <unicode hex="00E5"/>
  <outline>
    <contour>
      <point x="328" y="563" type="curve" smooth="yes"/>
      <point x="267" y="563"/>
      <point x="234" y="603"/>
      <point x="234" y="647" type="curve" smooth="yes"/>
      <point x="234" y="719"/>
      <point x="316" y="778"/>
      <point x="384" y="782" type="curve"/>
      <point x="442" y="782"/>
      <point x="490" y="754"/>
      <point x="490" y="701" type="curve" smooth="yes"/>
      <point x="490" y="619"/>
      <point x="400" y="563"/>
    </contour>
    <contour>
      <point x="383" y="736" type="curve" smooth="yes"/>
      <point x="324" y="736"/>
      <point x="277" y="688"/>
      <point x="277" y="656" type="curve" smooth="yes"/>
      <point x="277" y="625"/>
      <point x="309" y="610"/>
      <point x="340" y="610" type="curve" smooth="yes"/>
      <point x="377" y="610"/>
      <point x="446" y="635"/>
      <point x="446" y="687" type="curve" smooth="yes"/>
      <point x="446" y="716"/>
      <point x="417" y="736"/>
    </contour>
    <contour>
      <point x="484" y="472" type="curve"/>
      <point x="386" y="11" type="line"/>
      <point x="328" y="0" type="line"/>
      <point x="339" y="54" type="line"/>
      <point x="300" y="33"/>
      <point x="240" y="7"/>
      <point x="184" y="7" type="curve" smooth="yes"/>
      <point x="92" y="7"/>
      <point x="35" y="69"/>
      <point x="35" y="164" type="curve" smooth="yes"/>
      <point x="35" y="310"/>
      <point x="172" y="513"/>
      <point x="341" y="513" type="curve" smooth="yes"/>
      <point x="396" y="513"/>
      <point x="444" y="495"/>
    </contour>
    <contour>
      <point x="194" y="62" type="curve" smooth="yes"/>
      <point x="254" y="62"/>
      <point x="325" y="103"/>
      <point x="351" y="120" type="curve"/>
      <point x="423" y="436" type="line"/>
      <point x="406" y="444"/>
      <point x="368" y="458"/>
      <point x="334" y="458" type="curve" smooth="yes"/>
      <point x="158" y="458"/>
      <point x="94" y="235"/>
      <point x="94" y="178" type="curve" smooth="yes"/>
      <point x="94" y="119"/>
      <point x="119" y="63"/>
    </contour>
  </outline>
</glyph>
<glyph name="ccedilla" format="1">
  <advance width="507"/>
  <unicode hex="00E7"/>
  <outline>
    <contour>
      <point x="179" y="-159" type="curve" smooth="yes"/>
      <point x="209" y="-159"/>
      <point x="239" y="-131"/>
      <point x="239" y="-99" type="curve" smooth="yes"/>
      <point x="239" y="-77"/>
      <point x="223" y="-61"/>
      <point x="200" y="-61" type="curve" smooth="yes"/>
      <point x="187" y="-61"/>
      <point x="171" y="-67"/>
      <point x="165" y="-72" type="curve"/>
      <point x="143" y="-42" type="line"/>
      <point x="170" y="5" type="line"/>
      <point x="91" y="23"/>
      <point x="36" y="88"/>
      <point x="36" y="173" type="curve" smooth="yes"/>
      <point x="36" y="278"/>
      <point x="166" y="502"/>
      <point x="325" y="502" type="curve" smooth="yes"/>
      <point x="389" y="502"/>
      <point x="437" y="477"/>
      <point x="462" y="430" type="curve"/>
      <point x="414" y="391" type="line"/>
      <point x="399" y="429"/>
      <point x="362" y="450"/>
      <point x="316" y="450" type="curve" smooth="yes"/>
      <point x="192" y="450"/>
      <point x="90" y="258"/>
      <point x="90" y="176" type="curve" smooth="yes"/>
      <point x="90" y="76"/>
      <point x="182" y="52"/>
      <point x="228" y="52" type="curve" smooth="yes"/>
      <point x="291" y="52"/>
      <point x="353" y="87"/>
      <point x="391" y="137" type="curve"/>
      <point x="422" y="97" type="line"/>
      <point x="373" y="41"/>
      <point x="300" y="3"/>
      <point x="224" y="0" type="curve"/>
      <point x="203" y="0" type="line"/>
      <point x="197" y="-19" type="line"/>
      <point x="201" y="-19" type="line" smooth="yes"/>
      <point x="249" y="-19"/>
      <point x="282" y="-46"/>
      <point x="282" y="-89" type="curve" smooth="yes"/>
      <point x="282" y="-148"/>
      <point x="227" y="-201"/>
      <point x="170" y="-201" type="curve" smooth="yes"/>
      <point x="141" y="-201"/>
      <point x="118" y="-188"/>
      <point x="105" y="-166" type="curve"/>
      <point x="142" y="-136" type="line"/>
      <point x="144" y="-149"/>
      <point x="163" y="-159"/>
    </contour>
  </outline>
</glyph>
<glyph name="igrave" format="1">
  <advance width="217"/>
  <unicode hex="00EC"/>
  <outline>
    <contour>
      <point x="256" y="585" type="line"/>
      <point x="204" y="557" type="line"/>
      <point x="94" y="697" type="line"/>
      <point x="161" y="731" type="line"/>
    </contour>
    <contour>
      <point x="126" y="491" type="line"/>
      <point x="187" y="500" type="line"/>
      <point x="83" y="10" type="line"/>
      <point x="22" y="0" type="line"/>
    </contour>
  </outline>
</glyph>
<glyph name="iacute" format="1">
  <advance width="205"/>
  <unicode hex="00ED"/>
  <outline>
    <contour>
      <point x="114" y="491" type="line"/>
      <point x="175" y="500" type="line"/>
      <point x="71" y="10" type="line"/>
      <point x="10" y="0" type="line"/>
    </contour>
    <contour>
      <point x="96" y="602" type="line"/>
      <point x="272" y="724" type="line"/>
      <point x="315" y="679" type="line"/>
      <point x="129" y="567" type="line"/>
    </contour>
  </outline>
</glyph>
<glyph name="ograve" format="1">
  <advance width="535"/>
  <unicode hex="00F2"/>
  <outline>
    <contour>
      <point x="438" y="585" type="line"/>
      <point x="386" y="557" type="line"/>
      <point x="276" y="697" type="line"/>
      <point x="343" y="731" type="line"/>
    </contour>
    <contour>
      <point x="197" y="0" type="curve" smooth="yes"/>
      <point x="99" y="0"/>
      <point x="37" y="75"/>
      <point x="37" y="176" type="curve" smooth="yes"/>
      <point x="37" y="343"/>
      <point x="195" y="500"/>
      <point x="334" y="500" type="curve" smooth="yes"/>
      <point x="431" y="500"/>
      <point x="493" y="423"/>
      <point x="493" y="323" type="curve" smooth="yes"/>
      <point x="493" y="154"/>
      <point x="334" y="0"/>
    </contour>
    <contour>
      <point x="319" y="452" type="curve" smooth="yes"/>
      <point x="214" y="452"/>
      <point x="95" y="317"/>
      <point x="95" y="181" type="curve" smooth="yes"/>
      <point x="95" y="106"/>
      <point x="135" y="48"/>
      <point x="207" y="48" type="curve" smooth="yes"/>
      <point x="309" y="48"/>
      <point x="433" y="178"/>
      <point x="433" y="312" type="curve" smooth="yes"/>
      <point x="433" y="390"/>
      <point x="389" y="452"/>
    </contour>
  </outline>
</glyph>
<glyph name="ocircumflex" format="1">
  <advance width="535"/>
  <unicode hex="00F4"/>
  <outline>
    <contour>
      <point x="243" y="549" type="line"/>
      <point x="219" y="591" type="line"/>
      <point x="395" y="712" type="line"/>
      <point x="498" y="590" type="line"/>
      <point x="453" y="550" type="line"/>
      <point x="376" y="637" type="line"/>
    </contour>
    <contour>
      <point x="197" y="0" type="curve" smooth="yes"/>
      <point x="99" y="0"/>
      <point x="37" y="75"/>
      <point x="37" y="176" type="curve" smooth="yes"/>
      <point x="37" y="343"/>
      <point x="195" y="500"/>
      <point x="334" y="500" type="curve" smooth="yes"/>
      <point x="431" y="500"/>
      <point x="493" y="423"/>
      <point x="493" y="323" type="curve" smooth="yes"/>
      <point x="493" y="154"/>
      <point x="334" y="0"/>
    </contour>
    <contour>
      <point x="319" y="452" type="curve" smooth="yes"/>
      <point x="214" y="452"/>
      <point x="95" y="317"/>
      <point x="95" y="181" type="curve" smooth="yes"/>
      <point x="95" y="106"/>
      <point x="135" y="48"/>
      <point x="207" y="48" type="curve" smooth="yes"/>
      <point x="309" y="48"/>
      <point x="433" y="178"/>
      <point x="433" y="312" type="curve" smooth="yes"/>
      <point x="433" y="390"/>
      <point x="389" y="452"/>
    </contour>
  </outline>
</glyph>
<glyph name="odieresis" format="1">
  <advance width="535"/>
  <unicode hex="00F6"/>
  <outline>
    <contour>
      <point x="340" y="663" type="line"/>
      <point x="315" y="581" type="line"/>
      <point x="239" y="571" type="line"/>
      <point x="265" y="653" type="line"/>
    </contour>
    <contour>
      <point x="500" y="663" type="line"/>
      <point x="475" y="581" type="line"/>
      <point x="399" y="571" type="line"/>
      <point x="425" y="653" type="line"/>
    </contour>
    <contour>
      <point x="197" y="0" type="curve" smooth="yes"/>
      <point x="99" y="0"/>
      <point x="37" y="75"/>
      <point x="37" y="176" type="curve" smooth="yes"/>
      <point x="37" y="343"/>
      <point x="195" y="500"/>
      <point x="334" y="500" type="curve" smooth="yes"/>
      <point x="431" y="500"/>
      <point x="493" y="423"/>
      <point x="493" y="323" type="curve" smooth="yes"/>
      <point x="493" y="154"/>
      <point x="334" y="0"/>
    </contour>
    <contour>
      <point x="319" y="452" type="curve" smooth="yes"/>
      <point x="214" y="452"/>
      <point x="95" y="317"/>
      <point x="95" y="181" type="curve" smooth="yes"/>
      <point x="95" y="106"/>
      <point x="135" y="48"/>
      <point x="207" y="48" type="curve" smooth="yes"/>
      <point x="309" y="48"/>
      <point x="433" y="178"/>
      <point x="433" y="312" type="curve" smooth="yes"/>
      <point x="433" y="390"/>
      <point x="389" y="452"/>
    </contour>
  </outline>
</glyph>
<glyph name="divide" format="1">
  <advance width="407"/>
  <unicode hex="00F7"/>
  <outline>
    <contour>
      <point x="48" y="234" type="line"/>
      <point x="69" y="286" type="line"/>
      <point x="358" y="286" type="line"/>
      <point x="337" y="234" type="line"/>
    </contour>
    <contour>
      <point x="215" y="204" type="line"/>
      <point x="195" y="140" type="line"/>
      <point x="136" y="132" type="line"/>
      <point x="156" y="196" type="line"/>
    </contour>
    <contour>
      <point x="269" y="388" type="line"/>
      <point x="249" y="324" type="line"/>
      <point x="190" y="317" type="line"/>
      <point x="210" y="380" type="line"/>
    </contour>
  </outline>
</glyph>
<glyph name="yacute" format="1">
  <advance width="500"/>
  <unicode hex="00FD"/>
  <outline>
    <contour>
      <point x="480" y="499" type="line"/>
      <point x="525" y="475" type="line"/>
      <point x="70" y="-198" type="line"/>
      <point x="25" y="-174" type="line"/>
      <point x="183" y="60" type="line"/>
      <point x="65" y="473" type="line"/>
      <point x="120" y="498" type="line"/>
      <point x="227" y="126" type="line"/>
    </contour>
    <contour>
      <point x="232" y="602" type="line"/>
      <point x="408" y="724" type="line"/>
      <point x="452" y="679" type="line"/>
      <point x="266" y="567" type="line"/>
    </contour>
  </outline>
</glyph>
<glyph name="Abreve" format="1">
  <advance width="623"/>
  <unicode hex="0102"/>
  <outline>
    <contour>
      <point x="449" y="680" type="line"/>
      <point x="525" y="33" type="line"/>
      <point x="471" y="1" type="line"/>
      <point x="440" y="261" type="line"/>
      <point x="164" y="206" type="line"/>
      <point x="44" y="0" type="line"/>
      <point x="0" y="26" type="line"/>
      <point x="97" y="192" type="line"/>
      <point x="55" y="184" type="line"/>
      <point x="55" y="238" type="line"/>
      <point x="133" y="253" type="line"/>
      <point x="376" y="667" type="line"/>
    </contour>
    <contour>
      <point x="200" y="267" type="line"/>
      <point x="434" y="313" type="line"/>
      <point x="400" y="607" type="line"/>
    </contour>
    <contour>
      <point x="447" y="785" type="curve" smooth="yes"/>
      <point x="510" y="785"/>
      <point x="546" y="814"/>
      <point x="574" y="863" type="curve"/>
      <point x="598" y="832" type="line"/>
      <point x="568" y="777"/>
      <point x="500" y="739"/>
      <point x="437" y="739" type="curve" smooth="yes"/>
      <point x="367" y="739"/>
      <point x="316" y="775"/>
      <point x="303" y="828" type="curve"/>
      <point x="340" y="858" type="line"/>
      <point x="361" y="797"/>
      <point x="410" y="785"/>
    </contour>
  </outline>
</glyph>
<glyph name="abreve" format="1">
  <advance width="504"/>
  <unicode hex="0103"/>
  <outline>
    <contour>
      <point x="484" y="472" type="curve"/>
      <point x="386" y="11" type="line"/>
      <point x="328" y="0" type="line"/>
      <point x="339" y="54" type="line"/>
      <point x="300" y="33"/>
      <point x="240" y="7"/>
      <point x="184" y="7" type="curve" smooth="yes"/>
      <point x="92" y="7"/>
      <point x="35" y="69"/>
      <point x="35" y="164" type="curve" smooth="yes"/>
      <point x="35" y="310"/>
      <point x="172" y="513"/>
      <point x="341" y="513" type="curve" smooth="yes"/>
      <point x="396" y="513"/>
      <point x="444" y="495"/>
    </contour>
    <contour>
      <point x="194" y="62" type="curve" smooth="yes"/>
      <point x="254" y="62"/>
      <point x="325" y="103"/>
      <point x="351" y="120" type="curve"/>
      <point x="423" y="436" type="line"/>
      <point x="406" y="444"/>
      <point x="368" y="458"/>
      <point x="334" y="458" type="curve" smooth="yes"/>
      <point x="158" y="458"/>
      <point x="94" y="235"/>
      <point x="94" y="178" type="curve" smooth="yes"/>
      <point x="94" y="119"/>
      <point x="119" y="63"/>
    </contour>
    <contour>
      <point x="359" y="605" type="curve" smooth="yes"/>
      <point x="422" y="605"/>
      <point x="457" y="634"/>
      <point x="486" y="683" type="curve"/>
      <point x="510" y="652" type="line"/>
      <point x="479" y="597"/>
      <point x="411" y="559"/>
      <point x="348" y="559" type="curve" smooth="yes"/>
      <point x="278" y="559"/>
      <point x="228" y="595"/>
      <point x="215" y="648" type="curve"/>
      <point x="252" y="678" type="line"/>
      <point x="273" y="617"/>
      <point x="322" y="605"/>
    </contour>
  </outline>
</glyph>
<glyph name="aogonek" format="1">
  <advance width="510"/>
  <unicode hex="0105"/>
  <outline>
    <contour>
      <point x="386" y="15" type="line"/>
      <point x="345" y="-11" type="line" smooth="yes"/>
      <point x="317" y="-29"/>
      <point x="262" y="-63"/>
      <point x="262" y="-113" type="curve" smooth="yes"/>
      <point x="262" y="-141"/>
      <point x="282" y="-158"/>
      <point x="312" y="-158" type="curve" smooth="yes"/>
      <point x="344" y="-158"/>
      <point x="366" y="-145"/>
      <point x="393" y="-127" type="curve"/>
      <point x="410" y="-159" type="line"/>
      <point x="388" y="-180"/>
      <point x="344" y="-201"/>
      <point x="303" y="-201" type="curve" smooth="yes"/>
      <point x="252" y="-201"/>
      <point x="219" y="-169"/>
      <point x="219" y="-122" type="curve" smooth="yes"/>
      <point x="219" y="-58"/>
      <point x="281" y="-4"/>
      <point x="332" y="26" type="curve"/>
      <point x="338" y="54" type="line"/>
      <point x="299" y="33"/>
      <point x="239" y="7"/>
      <point x="183" y="7" type="curve" smooth="yes"/>
      <point x="91" y="7"/>
      <point x="34" y="69"/>
      <point x="34" y="164" type="curve" smooth="yes"/>
      <point x="34" y="310"/>
      <point x="171" y="513"/>
      <point x="340" y="513" type="curve" smooth="yes"/>
      <point x="395" y="513"/>
      <point x="443" y="495"/>
      <point x="483" y="472" type="curve"/>
    </contour>
    <contour>
      <point x="193" y="62" type="curve" smooth="yes"/>
      <point x="253" y="62"/>
      <point x="324" y="103"/>
      <point x="350" y="120" type="curve"/>
      <point x="422" y="436" type="line"/>
      <point x="405" y="444"/>
      <point x="367" y="458"/>
      <point x="333" y="458" type="curve" smooth="yes"/>
      <point x="157" y="458"/>
      <point x="93" y="235"/>
      <point x="93" y="178" type="curve" smooth="yes"/>
      <point x="93" y="119"/>
      <point x="118" y="63"/>
    </contour>
  </outline>
</glyph>
<glyph name="Ccaron" format="1">
  <advance width="631"/>
  <unicode hex="010C"/>
  <outline>
    <contour>
      <point x="278" y="-1" type="curve" smooth="yes"/>
      <point x="144" y="-1"/>
      <point x="50" y="94"/>
      <point x="50" y="227" type="curve" smooth="yes"/>
      <point x="50" y="383"/>
      <point x="229" y="681"/>
      <point x="435" y="681" type="curve" smooth="yes"/>
      <point x="491" y="681"/>
      <point x="539" y="665"/>
      <point x="572" y="635" type="curve"/>
      <point x="577" y="658" type="line"/>
      <point x="623" y="658" type="line"/>
      <point x="598" y="539" type="line"/>
      <point x="552" y="539" type="line"/>
      <point x="557" y="564" type="line"/>
      <point x="537" y="594"/>
      <point x="499" y="628"/>
      <point x="418" y="628" type="curve" smooth="yes"/>
      <point x="262" y="628"/>
      <point x="104" y="366"/>
      <point x="104" y="241" type="curve" smooth="yes"/>
      <point x="104" y="134"/>
      <point x="179" y="52"/>
      <point x="290" y="52" type="curve" smooth="yes"/>
      <point x="384" y="52"/>
      <point x="467" y="94"/>
      <point x="523" y="170" type="curve"/>
      <point x="553" y="131" type="line"/>
      <point x="486" y="49"/>
      <point x="382" y="-1"/>
    </contour>
    <contour>
      <point x="589" y="881" type="line"/>
      <point x="613" y="838" type="line"/>
      <point x="436" y="718" type="line"/>
      <point x="333" y="840" type="line"/>
      <point x="378" y="880" type="line"/>
      <point x="455" y="792" type="line"/>
    </contour>
  </outline>
</glyph>
<glyph name="ccaron" format="1">
  <advance width="507"/>
  <unicode hex="010D"/>
  <outline>
    <contour>
      <point x="233" y="52" type="curve"/>
      <point x="295" y="55"/>
      <point x="354" y="88"/>
      <point x="391" y="137" type="curve"/>
      <point x="422" y="97" type="line"/>
      <point x="371" y="38"/>
      <point x="293" y="0"/>
      <point x="213" y="0" type="curve" smooth="yes"/>
      <point x="112" y="0"/>
      <point x="36" y="73"/>
      <point x="36" y="173" type="curve" smooth="yes"/>
      <point x="36" y="279"/>
      <point x="166" y="502"/>
      <point x="325" y="502" type="curve" smooth="yes"/>
      <point x="389" y="502"/>
      <point x="437" y="477"/>
      <point x="462" y="430" type="curve"/>
      <point x="414" y="391" type="line"/>
      <point x="399" y="429"/>
      <point x="362" y="450"/>
      <point x="316" y="450" type="curve" smooth="yes"/>
      <point x="192" y="450"/>
      <point x="90" y="258"/>
      <point x="90" y="176" type="curve" smooth="yes"/>
      <point x="90" y="71"/>
      <point x="189" y="52"/>
    </contour>
    <contour>
      <point x="493" y="712" type="line"/>
      <point x="517" y="669" type="line"/>
      <point x="341" y="549" type="line"/>
      <point x="238" y="671" type="line"/>
      <point x="283" y="711" type="line"/>
      <point x="360" y="623" type="line"/>
    </contour>
  </outline>
</glyph>
<glyph name="Dcaron" format="1">
  <advance width="616"/>
  <unicode hex="010E"/>
  <outline>
    <contour>
      <point x="516" y="881" type="line"/>
      <point x="540" y="838" type="line"/>
      <point x="364" y="718" type="line"/>
      <point x="261" y="840" type="line"/>
      <point x="306" y="880" type="line"/>
      <point x="383" y="792" type="line"/>
    </contour>
    <contour>
      <point x="10" y="1" type="curve"/>
      <point x="154" y="680" type="line"/>
      <point x="180" y="680" type="line" smooth="yes"/>
      <point x="463" y="680"/>
      <point x="574" y="542"/>
      <point x="574" y="390" type="curve" smooth="yes"/>
      <point x="574" y="141"/>
      <point x="401" y="-15"/>
      <point x="148" y="-15" type="curve" smooth="yes"/>
      <point x="110" y="-15"/>
      <point x="47" y="-10"/>
    </contour>
    <contour>
      <point x="197" y="627" type="curve"/>
      <point x="73" y="45" type="line"/>
      <point x="91" y="42"/>
      <point x="123" y="39"/>
      <point x="160" y="39" type="curve" smooth="yes"/>
      <point x="214" y="39"/>
      <point x="295" y="47"/>
      <point x="365" y="86" type="curve" smooth="yes"/>
      <point x="455" y="137"/>
      <point x="519" y="245"/>
      <point x="519" y="380" type="curve" smooth="yes"/>
      <point x="519" y="470"/>
      <point x="479" y="537"/>
      <point x="399" y="579" type="curve" smooth="yes"/>
      <point x="326" y="617"/>
      <point x="238" y="626"/>
    </contour>
  </outline>
</glyph>
<glyph name="dcaron" format="1">
  <advance width="609"/>
  <unicode hex="010F"/>
  <outline>
    <contour>
      <point x="655" y="691" type="line"/>
      <point x="717" y="652" type="line"/>
      <point x="589" y="486" type="line"/>
      <point x="546" y="514" type="line"/>
      <point x="620" y="610" type="line"/>
      <point x="586" y="632" type="line"/>
    </contour>
    <contour>
      <point x="495" y="687" type="line"/>
      <point x="554" y="697" type="line"/>
      <point x="392" y="10" type="line"/>
      <point x="334" y="0" type="line"/>
      <point x="353" y="80" type="line"/>
      <point x="311" y="48"/>
      <point x="246" y="6"/>
      <point x="167" y="6" type="curve" smooth="yes"/>
      <point x="74" y="6"/>
      <point x="36" y="75"/>
      <point x="36" y="158" type="curve" smooth="yes"/>
      <point x="36" y="162"/>
      <point x="48" y="495"/>
      <point x="320" y="495" type="curve" smooth="yes"/>
      <point x="375" y="495"/>
      <point x="413" y="479"/>
      <point x="442" y="464" type="curve"/>
    </contour>
    <contour>
      <point x="372" y="162" type="curve" smooth="yes"/>
      <point x="428" y="404" type="line"/>
      <point x="412" y="414"/>
      <point x="361" y="442"/>
      <point x="302" y="442" type="curve" smooth="yes"/>
      <point x="127" y="442"/>
      <point x="92" y="225"/>
      <point x="92" y="164" type="curve" smooth="yes"/>
      <point x="92" y="109"/>
      <point x="110" y="55"/>
      <point x="177" y="55" type="curve" smooth="yes"/>
      <point x="278" y="55"/>
      <point x="365" y="131"/>
    </contour>
  </outline>
</glyph>
<glyph name="Dcroat" format="1">
  <advance width="676"/>
  <unicode hex="0110"/>
  <outline>
    <contour>
      <point x="70" y="1" type="curve"/>
      <point x="131" y="291" type="line"/>
      <point x="32" y="291" type="line"/>
      <point x="55" y="350" type="line"/>
      <point x="144" y="350" type="line"/>
      <point x="214" y="680" type="line"/>
      <point x="240" y="680" type="line" smooth="yes"/>
      <point x="523" y="680"/>
      <point x="634" y="542"/>
      <point x="634" y="390" type="curve" smooth="yes"/>
      <point x="634" y="141"/>
      <point x="461" y="-15"/>
      <point x="208" y="-15" type="curve" smooth="yes"/>
      <point x="170" y="-15"/>
      <point x="107" y="-10"/>
    </contour>
    <contour>
      <point x="285" y="291" type="line"/>
      <point x="185" y="291" type="line"/>
      <point x="133" y="45" type="line"/>
      <point x="151" y="42"/>
      <point x="183" y="39"/>
      <point x="220" y="39" type="curve" smooth="yes"/>
      <point x="274" y="39"/>
      <point x="355" y="47"/>
      <point x="425" y="86" type="curve" smooth="yes"/>
      <point x="515" y="137"/>
      <point x="579" y="245"/>
      <point x="579" y="380" type="curve" smooth="yes"/>
      <point x="579" y="470"/>
      <point x="539" y="537"/>
      <point x="459" y="579" type="curve" smooth="yes"/>
      <point x="386" y="617"/>
      <point x="298" y="626"/>
      <point x="257" y="627" type="curve"/>
      <point x="198" y="350" type="line"/>
      <point x="308" y="350" type="line"/>
    </contour>
  </outline>
</glyph>
<glyph name="Ecaron" format="1">
  <advance width="611"/>
  <unicode hex="011A"/>
  <outline>
    <contour>
      <point x="77" y="56" type="line"/>
      <point x="507" y="56" type="line"/>
      <point x="476" y="0" type="line"/>
      <point x="10" y="0" type="line"/>
      <point x="154" y="681" type="line"/>
      <point x="635" y="681" type="line"/>
      <point x="613" y="625" type="line"/>
      <point x="198" y="625" type="line"/>
      <point x="147" y="382" type="line"/>
      <point x="532" y="382" type="line"/>
      <point x="503" y="326" type="line"/>
      <point x="135" y="326" type="line"/>
    </contour>
    <contour>
      <point x="546" y="881" type="line"/>
      <point x="570" y="838" type="line"/>
      <point x="393" y="718" type="line"/>
      <point x="290" y="840" type="line"/>
      <point x="335" y="880" type="line"/>
      <point x="412" y="792" type="line"/>
    </contour>
  </outline>
</glyph>
<glyph name="Gcircumflex" format="1">
  <advance width="744"/>
  <unicode hex="011C"/>
  <outline>
    <contour>
      <point x="640" y="230" type="curve"/>
      <point x="620" y="182"/>
      <point x="531" y="-2"/>
      <point x="299" y="-2" type="curve" smooth="yes"/>
      <point x="154" y="-2"/>
      <point x="67" y="104"/>
      <point x="67" y="252" type="curve" smooth="yes"/>
      <point x="67" y="445"/>
      <point x="241" y="682"/>
      <point x="463" y="682" type="curve" smooth="yes"/>
      <point x="614" y="682"/>
      <point x="692" y="598"/>
      <point x="696" y="477" type="curve"/>
      <point x="641" y="466" type="line"/>
      <point x="637" y="565"/>
      <point x="575" y="629"/>
      <point x="452" y="629" type="curve" smooth="yes"/>
      <point x="274" y="629"/>
      <point x="123" y="440"/>
      <point x="123" y="265" type="curve" smooth="yes"/>
      <point x="123" y="151"/>
      <point x="181" y="52"/>
      <point x="311" y="52" type="curve" smooth="yes"/>
      <point x="438" y="52"/>
      <point x="534" y="120"/>
      <point x="588" y="235" type="curve"/>
      <point x="579" y="236"/>
      <point x="567" y="236"/>
      <point x="562" y="236" type="curve" smooth="yes"/>
      <point x="502" y="236"/>
      <point x="435" y="224"/>
      <point x="395" y="208" type="curve"/>
      <point x="407" y="266" type="line"/>
      <point x="456" y="281"/>
      <point x="518" y="289"/>
      <point x="576" y="289" type="curve" smooth="yes"/>
      <point x="617" y="289"/>
      <point x="656" y="285"/>
      <point x="687" y="277" type="curve"/>
      <point x="675" y="221" type="line"/>
      <point x="667" y="224"/>
      <point x="653" y="229"/>
    </contour>
    <contour>
      <point x="355" y="718" type="line"/>
      <point x="331" y="760" type="line"/>
      <point x="507" y="881" type="line"/>
      <point x="610" y="759" type="line"/>
      <point x="565" y="719" type="line"/>
      <point x="488" y="806" type="line"/>
    </contour>
  </outline>
</glyph>
<glyph name="gcircumflex" format="1">
  <advance width="522"/>
  <unicode hex="011D"/>
  <outline>
    <contour>
      <point x="509" y="508" type="line"/>
      <point x="395" y="19" type="line" smooth="yes"/>
      <point x="364" y="-112"/>
      <point x="274" y="-185"/>
      <point x="149" y="-185" type="curve" smooth="yes"/>
      <point x="101" y="-185"/>
      <point x="55" y="-178"/>
      <point x="25" y="-171" type="curve"/>
      <point x="49" y="-116" type="line"/>
      <point x="76" y="-122"/>
      <point x="118" y="-129"/>
      <point x="161" y="-129" type="curve" smooth="yes"/>
      <point x="292" y="-129"/>
      <point x="327" y="-25"/>
      <point x="338" y="18" type="curve" smooth="yes"/>
      <point x="353" y="79" type="line"/>
      <point x="307" y="31"/>
      <point x="252" y="0"/>
      <point x="194" y="0" type="curve" smooth="yes"/>
      <point x="99" y="0"/>
      <point x="39" y="70"/>
      <point x="39" y="173" type="curve" smooth="yes"/>
      <point x="39" y="317"/>
      <point x="166" y="501"/>
      <point x="339" y="501" type="curve" smooth="yes"/>
      <point x="386" y="501"/>
      <point x="421" y="484"/>
      <point x="444" y="469" type="curve"/>
      <point x="451" y="499" type="line"/>
    </contour>
    <contour>
      <point x="428" y="413" type="line"/>
      <point x="408" y="431"/>
      <point x="372" y="446"/>
      <point x="332" y="446" type="curve" smooth="yes"/>
      <point x="205" y="446"/>
      <point x="90" y="320"/>
      <point x="90" y="192" type="curve" smooth="yes"/>
      <point x="90" y="126"/>
      <point x="118" y="53"/>
      <point x="200" y="53" type="curve" smooth="yes"/>
      <point x="271" y="53"/>
      <point x="362" y="106"/>
      <point x="397" y="268" type="curve" smooth="yes"/>
    </contour>
    <contour>
      <point x="235" y="549" type="line"/>
      <point x="211" y="591" type="line"/>
      <point x="388" y="712" type="line"/>
      <point x="491" y="590" type="line"/>
      <point x="446" y="550" type="line"/>
      <point x="369" y="637" type="line"/>
    </contour>
  </outline>
</glyph>
<glyph name="jcircumflex" format="1">
  <advance width="313"/>
  <unicode hex="0135"/>
  <outline>
    <contour>
      <point x="-97" y="-10" type="curve"/>
      <point x="-39" y="2" type="line"/>
      <point x="-31" y="-38"/>
      <point x="-5" y="-129"/>
      <point x="43" y="-129" type="curve" smooth="yes"/>
      <point x="88" y="-129"/>
      <point x="119" y="-73"/>
      <point x="134" y="-5" type="curve" smooth="yes"/>
      <point x="137" y="12"/>
      <point x="183" y="239"/>
      <point x="235" y="502" type="curve"/>
      <point x="295" y="513" type="line"/>
      <point x="241" y="247"/>
      <point x="196" y="17"/>
      <point x="193" y="0" type="curve" smooth="yes"/>
      <point x="177" y="-72"/>
      <point x="130" y="-180"/>
      <point x="37" y="-180" type="curve" smooth="yes"/>
      <point x="-61" y="-180"/>
      <point x="-93" y="-27"/>
    </contour>
    <contour>
      <point x="165" y="549" type="line"/>
      <point x="141" y="591" type="line"/>
      <point x="318" y="712" type="line"/>
      <point x="421" y="590" type="line"/>
      <point x="376" y="550" type="line"/>
      <point x="299" y="637" type="line"/>
    </contour>
  </outline>
</glyph>
<glyph name="Lacute" format="1">
  <advance width="487"/>
  <unicode hex="0139"/>
  <outline>
    <contour>
      <point x="10" y="0" type="line"/>
      <point x="151" y="668" type="line"/>
      <point x="210" y="678" type="line"/>
      <point x="78" y="60" type="line"/>
      <point x="425" y="85" type="line"/>
      <point x="417" y="29" type="line"/>
    </contour>
    <contour>
      <point x="221" y="771" type="line"/>
      <point x="397" y="893" type="line"/>
      <point x="440" y="848" type="line"/>
      <point x="254" y="736" type="line"/>
    </contour>
  </outline>
</glyph>
<glyph name="lcaron" format="1">
  <advance width="290"/>
  <unicode hex="013E"/>
  <outline>
    <contour>
      <point x="174" y="681" type="line"/>
      <point x="233" y="692" type="line"/>
      <point x="88" y="10" type="line"/>
      <point x="30" y="0" type="line"/>
    </contour>
    <contour>
      <point x="337" y="694" type="line"/>
      <point x="399" y="655" type="line"/>
      <point x="270" y="489" type="line"/>
      <point x="227" y="517" type="line"/>
      <point x="302" y="613" type="line"/>
      <point x="267" y="635" type="line"/>
    </contour>
  </outline>
</glyph>
<glyph name="Ncaron" format="1">
  <advance width="615"/>
  <unicode hex="0147"/>
  <outline>
    <contour>
      <point x="584" y="671" type="line"/>
      <point x="639" y="681" type="line"/>
      <point x="497" y="13" type="line"/>
      <point x="431" y="0" type="line"/>
      <point x="188" y="588" type="line"/>
      <point x="66" y="12" type="line"/>
      <point x="11" y="1" type="line"/>
      <point x="151" y="664" type="line"/>
      <point x="213" y="681" type="line"/>
      <point x="460" y="88" type="line"/>
    </contour>
    <contour>
      <point x="557" y="881" type="line"/>
      <point x="581" y="838" type="line"/>
      <point x="404" y="718" type="line"/>
      <point x="301" y="840" type="line"/>
      <point x="346" y="880" type="line"/>
      <point x="423" y="792" type="line"/>
    </contour>
  </outline>
</glyph>
<glyph name="racute" format="1">
  <advance width="401"/>
  <unicode hex="0155"/>
  <outline>
    <contour>
      <point x="411" y="431" type="curve" smooth="yes"/>
      <point x="402" y="389" type="line"/>
      <point x="345" y="379" type="line"/>
      <point x="352" y="412" type="line" smooth="yes"/>
      <point x="353" y="418"/>
      <point x="354" y="423"/>
      <point x="354" y="427" type="curve" smooth="yes"/>
      <point x="354" y="439"/>
      <point x="348" y="447"/>
      <point x="326" y="447" type="curve" smooth="yes"/>
      <point x="255" y="447"/>
      <point x="139" y="348"/>
      <point x="119" y="252" type="curve" smooth="yes"/>
      <point x="68" y="10" type="line"/>
      <point x="10" y="0" type="line"/>
      <point x="114" y="492" type="line"/>
      <point x="172" y="502" type="line"/>
      <point x="145" y="376" type="line"/>
      <point x="188" y="430"/>
      <point x="262" y="502"/>
      <point x="344" y="502" type="curve" smooth="yes"/>
      <point x="386" y="502"/>
      <point x="412" y="477"/>
      <point x="412" y="444" type="curve" smooth="yes"/>
      <point x="412" y="440"/>
      <point x="412" y="435"/>
    </contour>
    <contour>
      <point x="205" y="602" type="line"/>
      <point x="381" y="724" type="line"/>
      <point x="424" y="679" type="line"/>
      <point x="238" y="567" type="line"/>
    </contour>
  </outline>
</glyph>
<glyph name="scircumflex" format="1">
  <advance width="460"/>
  <unicode hex="015D"/>
  <outline>
    <contour>
      <point x="306" y="505" type="curve" smooth="yes"/>
      <point x="358" y="505"/>
      <point x="438" y="489"/>
      <point x="438" y="419" type="curve" smooth="yes"/>
      <point x="438" y="407"/>
      <point x="435" y="393"/>
      <point x="431" y="379" type="curve"/>
      <point x="380" y="369" type="line"/>
      <point x="384" y="378"/>
      <point x="386" y="390"/>
      <point x="386" y="399" type="curve" smooth="yes"/>
      <point x="386" y="443"/>
      <point x="337" y="458"/>
      <point x="296" y="458" type="curve" smooth="yes"/>
      <point x="201" y="458"/>
      <point x="158" y="413"/>
      <point x="158" y="364" type="curve" smooth="yes"/>
      <point x="158" y="333"/>
      <point x="190" y="311"/>
      <point x="254" y="292" type="curve" smooth="yes"/>
      <point x="343" y="266"/>
      <point x="387" y="226"/>
      <point x="387" y="171" type="curve" smooth="yes"/>
      <point x="387" y="36"/>
      <point x="236" y="0"/>
      <point x="182" y="0" type="curve" smooth="yes"/>
      <point x="99" y="0"/>
      <point x="26" y="44"/>
      <point x="20" y="121" type="curve"/>
      <point x="77" y="130" type="line"/>
      <point x="82" y="77"/>
      <point x="133" y="50"/>
      <point x="189" y="50" type="curve" smooth="yes"/>
      <point x="255" y="50"/>
      <point x="329" y="95"/>
      <point x="329" y="159" type="curve" smooth="yes"/>
      <point x="329" y="205"/>
      <point x="288" y="220"/>
      <point x="222" y="243" type="curve" smooth="yes"/>
      <point x="162" y="264"/>
      <point x="100" y="288"/>
      <point x="100" y="355" type="curve" smooth="yes"/>
      <point x="100" y="480"/>
      <point x="237" y="505"/>
    </contour>
    <contour>
      <point x="205" y="549" type="line"/>
      <point x="181" y="591" type="line"/>
      <point x="358" y="712" type="line"/>
      <point x="461" y="590" type="line"/>
      <point x="416" y="550" type="line"/>
      <point x="339" y="637" type="line"/>
    </contour>
  </outline>
</glyph>
<glyph name="uni0162" format="1">
  <advance width="522"/>
  <unicode hex="0162"/>
  <outline>
    <contour>
      <point x="170" y="0" type="line"/>
      <point x="302" y="625" type="line"/>
      <point x="87" y="625" type="line"/>
      <point x="99" y="681" type="line"/>
      <point x="601" y="681" type="line"/>
      <point x="589" y="625" type="line"/>
      <point x="359" y="625" type="line"/>
      <point x="229" y="10" type="line"/>
    </contour>
    <contour>
      <point x="199" y="-19" type="line"/>
      <point x="261" y="-58" type="line"/>
      <point x="133" y="-224" type="line"/>
      <point x="90" y="-196" type="line"/>
      <point x="164" y="-100" type="line"/>
      <point x="130" y="-78" type="line"/>
    </contour>
  </outline>
</glyph>
<glyph name="Tcaron" format="1">
  <advance width="522"/>
  <unicode hex="0164"/>
  <outline>
    <contour>
      <point x="170" y="0" type="line"/>
      <point x="302" y="625" type="line"/>
      <point x="87" y="625" type="line"/>
      <point x="99" y="681" type="line"/>
      <point x="601" y="681" type="line"/>
      <point x="589" y="625" type="line"/>
      <point x="359" y="625" type="line"/>
      <point x="229" y="10" type="line"/>
    </contour>
    <contour>
      <point x="505" y="881" type="line"/>
      <point x="529" y="838" type="line"/>
      <point x="353" y="718" type="line"/>
      <point x="250" y="840" type="line"/>
      <point x="295" y="880" type="line"/>
      <point x="372" y="792" type="line"/>
    </contour>
  </outline>
</glyph>
<glyph name="ubreve" format="1">
  <advance width="516"/>
  <unicode hex="016D"/>
  <outline>
    <contour>
      <point x="126" y="289" type="curve" smooth="yes"/>
      <point x="114" y="233"/>
      <point x="102" y="175"/>
      <point x="102" y="130" type="curve" smooth="yes"/>
      <point x="102" y="79"/>
      <point x="118" y="43"/>
      <point x="173" y="43" type="curve" smooth="yes"/>
      <point x="242" y="43"/>
      <point x="323" y="92"/>
      <point x="349" y="116" type="curve" smooth="yes"/>
      <point x="359" y="124"/>
      <point x="366" y="138"/>
      <point x="371" y="159" type="curve" smooth="yes"/>
      <point x="448" y="494" type="line"/>
      <point x="503" y="504" type="line"/>
      <point x="398" y="10" type="line"/>
      <point x="334" y="0" type="line"/>
      <point x="349" y="74" type="line"/>
      <point x="316" y="36"/>
      <point x="239" y="-6"/>
      <point x="161" y="-6" type="curve" smooth="yes"/>
      <point x="72" y="-6"/>
      <point x="46" y="46"/>
      <point x="46" y="117" type="curve" smooth="yes"/>
      <point x="46" y="168"/>
      <point x="60" y="230"/>
      <point x="72" y="289" type="curve" smooth="yes"/>
      <point x="81" y="334"/>
      <point x="105" y="426"/>
      <point x="132" y="494" type="curve"/>
      <point x="189" y="504" type="line"/>
      <point x="182" y="488"/>
      <point x="144" y="374"/>
    </contour>
    <contour>
      <point x="336" y="605" type="curve" smooth="yes"/>
      <point x="399" y="605"/>
      <point x="434" y="634"/>
      <point x="463" y="683" type="curve"/>
      <point x="487" y="652" type="line"/>
      <point x="456" y="597"/>
      <point x="388" y="559"/>
      <point x="325" y="559" type="curve" smooth="yes"/>
      <point x="255" y="559"/>
      <point x="205" y="595"/>
      <point x="192" y="648" type="curve"/>
      <point x="229" y="678" type="line"/>
      <point x="250" y="617"/>
      <point x="299" y="605"/>
    </contour>
  </outline>
</glyph>
<glyph name="uring" format="1">
  <advance width="515"/>
  <unicode hex="016F"/>
  <outline>
    <contour>
      <point x="334" y="563" type="curve" smooth="yes"/>
      <point x="273" y="563"/>
      <point x="240" y="603"/>
      <point x="240" y="647" type="curve" smooth="yes"/>
      <point x="240" y="719"/>
      <point x="322" y="778"/>
      <point x="390" y="782" type="curve"/>
      <point x="448" y="782"/>
      <point x="496" y="754"/>
      <point x="496" y="701" type="curve" smooth="yes"/>
      <point x="496" y="619"/>
      <point x="406" y="563"/>
    </contour>
    <contour>
      <point x="389" y="736" type="curve" smooth="yes"/>
      <point x="330" y="736"/>
      <point x="283" y="688"/>
      <point x="283" y="656" type="curve" smooth="yes"/>
      <point x="283" y="625"/>
      <point x="315" y="610"/>
      <point x="346" y="610" type="curve" smooth="yes"/>
      <point x="383" y="610"/>
      <point x="452" y="635"/>
      <point x="452" y="687" type="curve" smooth="yes"/>
      <point x="452" y="716"/>
      <point x="423" y="736"/>
    </contour>
    <contour>
      <point x="125" y="289" type="curve" smooth="yes"/>
      <point x="113" y="233"/>
      <point x="101" y="175"/>
      <point x="101" y="130" type="curve" smooth="yes"/>
      <point x="101" y="79"/>
      <point x="117" y="43"/>
      <point x="172" y="43" type="curve" smooth="yes"/>
      <point x="241" y="43"/>
      <point x="322" y="92"/>
      <point x="348" y="116" type="curve" smooth="yes"/>
      <point x="358" y="124"/>
      <point x="365" y="138"/>
      <point x="370" y="159" type="curve" smooth="yes"/>
      <point x="447" y="494" type="line"/>
      <point x="502" y="504" type="line"/>
      <point x="397" y="10" type="line"/>
      <point x="333" y="0" type="line"/>
      <point x="348" y="74" type="line"/>
      <point x="315" y="36"/>
      <point x="238" y="-6"/>
      <point x="160" y="-6" type="curve" smooth="yes"/>
      <point x="71" y="-6"/>
      <point x="45" y="46"/>
      <point x="45" y="117" type="curve" smooth="yes"/>
      <point x="45" y="166"/>
      <point x="58" y="225"/>
      <point x="70" y="283" type="curve" smooth="yes"/>
      <point x="79" y="326"/>
      <point x="102" y="423"/>
      <point x="131" y="494" type="curve"/>
      <point x="188" y="504" type="line"/>
      <point x="181" y="488"/>
      <point x="143" y="374"/>
    </contour>
  </outline>
</glyph>
<glyph name="Zacute" format="1">
  <advance width="621"/>
  <unicode hex="0179"/>
  <outline>
    <contour>
      <point x="18" y="0" type="line"/>
      <point x="4" y="55" type="line"/>
      <point x="577" y="620" type="line"/>
      <point x="155" y="620" type="line"/>
      <point x="179" y="681" type="line"/>
      <point x="635" y="681" type="line"/>
      <point x="649" y="626" type="line"/>
      <point x="75" y="61" type="line"/>
      <point x="519" y="61" type="line"/>
      <point x="496" y="0" type="line"/>
    </contour>
    <contour>
      <point x="347" y="771" type="line"/>
      <point x="523" y="893" type="line"/>
      <point x="567" y="848" type="line"/>
      <point x="380" y="736" type="line"/>
    </contour>
  </outline>
</glyph>
<glyph name="Zdotaccent" format="1">
  <advance width="621"/>
  <unicode hex="017B"/>
  <outline>
    <contour>
      <point x="18" y="0" type="line"/>
      <point x="4" y="55" type="line"/>
      <point x="577" y="620" type="line"/>
      <point x="155" y="620" type="line"/>
      <point x="179" y="681" type="line"/>
      <point x="635" y="681" type="line"/>
      <point x="649" y="626" type="line"/>
      <point x="75" y="61" type="line"/>
      <point x="519" y="61" type="line"/>
      <point x="496" y="0" type="line"/>
    </contour>
    <contour>
      <point x="470" y="820" type="line"/>
      <point x="444" y="738" type="line"/>
      <point x="368" y="728" type="line"/>
      <point x="395" y="810" type="line"/>
    </contour>
  </outline>
</glyph>
<glyph name="breve" format="1">
  <advance width="500"/>
  <unicode hex="02D8"/>
  <outline>
    <contour>
      <point x="329" y="605" type="curve" smooth="yes"/>
      <point x="392" y="605"/>
      <point x="427" y="634"/>
      <point x="456" y="683" type="curve"/>
      <point x="480" y="652" type="line"/>
      <point x="449" y="597"/>
      <point x="381" y="559"/>
      <point x="318" y="559" type="curve" smooth="yes"/>
      <point x="248" y="559"/>
      <point x="198" y="595"/>
      <point x="185" y="648" type="curve"/>
      <point x="222" y="678" type="line"/>
      <point x="243" y="617"/>
      <point x="292" y="605"/>
    </contour>
  </outline>
</glyph>
<glyph name="dotaccent" format="1">
  <advance width="500"/>
  <unicode hex="02D9"/>
  <outline>
    <contour>
      <point x="371" y="639" type="line"/>
      <point x="346" y="557" type="line"/>
      <point x="270" y="547" type="line"/>
      <point x="296" y="629" type="line"/>
    </contour>
  </outline>
</glyph>
<glyph name="ogonek" format="1">
  <advance width="500"/>
  <unicode hex="02DB"/>
  <outline>
    <contour>
      <point x="329" y="-127" type="curve"/>
      <point x="346" y="-159" type="line"/>
      <point x="324" y="-180"/>
      <point x="280" y="-201"/>
      <point x="239" y="-201" type="curve" smooth="yes"/>
      <point x="188" y="-201"/>
      <point x="155" y="-169"/>
      <point x="155" y="-122" type="curve" smooth="yes"/>
      <point x="155" y="-52"/>
      <point x="229" y="7"/>
      <point x="283" y="34" type="curve" smooth="yes"/>
      <point x="301" y="43" type="line"/>
      <point x="317" y="12" type="line"/>
      <point x="281" y="-11" type="line" smooth="yes"/>
      <point x="250" y="-31"/>
      <point x="198" y="-63"/>
      <point x="198" y="-113" type="curve" smooth="yes"/>
      <point x="198" y="-141"/>
      <point x="218" y="-158"/>
      <point x="248" y="-158" type="curve" smooth="yes"/>
      <point x="280" y="-158"/>
      <point x="302" y="-145"/>
    </contour>
  </outline>
</glyph>
<glyph name="hungarumlaut" format="1">
  <advance width="500"/>
  <unicode hex="02DD"/>
  <outline>
    <contour>
      <point x="300" y="602" type="line"/>
      <point x="476" y="724" type="line"/>
      <point x="520" y="679" type="line"/>
      <point x="334" y="567" type="line"/>
    </contour>
    <contour>
      <point x="140" y="602" type="line"/>
      <point x="316" y="724" type="line"/>
      <point x="359" y="679" type="line"/>
      <point x="173" y="567" type="line"/>
    </contour>
  </outline>
</glyph>
<glyph name="emdash" format="1">
  <advance width="877"/>
  <unicode hex="2014"/>
  <outline>
    <contour>
      <point x="790" y="222" type="line"/>
      <point x="63" y="222" type="line"/>
      <point x="85" y="278" type="line"/>
      <point x="812" y="278" type="line"/>
    </contour>
  </outline>
</glyph>
<glyph name="quoteright" format="1">
  <advance width="182"/>
  <unicode hex="2019"/>
  <outline>
    <contour>
      <point x="196" y="749" type="line"/>
      <point x="257" y="710" type="line"/>
      <point x="129" y="544" type="line"/>
      <point x="86" y="572" type="line"/>
      <point x="160" y="668" type="line"/>
      <point x="126" y="690" type="line"/>
    </contour>
  </outline>
</glyph>
<glyph name="quotesinglbase" format="1">
  <advance width="316"/>
  <unicode hex="201A"/>
  <outline>
    <contour>
      <point x="124" y="79" type="line"/>
      <point x="185" y="40" type="line"/>
      <point x="57" y="-126" type="line"/>
      <point x="14" y="-98" type="line"/>
      <point x="88" y="-2" type="line"/>
      <point x="54" y="20" type="line"/>
    </contour>
  </outline>
</glyph>
<glyph name="quotedblleft" format="1">
  <advance width="348"/>
  <unicode hex="201C"/>
  <outline>
    <contour>
      <point x="316" y="544" type="line"/>
      <point x="254" y="583" type="line"/>
      <point x="383" y="749" type="line"/>
      <point x="426" y="721" type="line"/>
      <point x="351" y="625" type="line"/>
      <point x="386" y="603" type="line"/>
    </contour>
    <contour>
      <point x="150" y="544" type="line"/>
      <point x="88" y="583" type="line"/>
      <point x="217" y="749" type="line"/>
      <point x="260" y="721" type="line"/>
      <point x="185" y="625" type="line"/>
      <point x="220" y="603" type="line"/>
    </contour>
  </outline>
</glyph>
<glyph name="bullet" format="1">
  <advance width="378"/>
  <unicode hex="2022"/>
  <outline>
    <contour>
      <point x="276" y="253" type="curve"/>
      <point x="266" y="204"/>
      <point x="218" y="164"/>
      <point x="169" y="164" type="curve" smooth="yes"/>
      <point x="126" y="164"/>
      <point x="97" y="194"/>
      <point x="97" y="235" type="curve" smooth="yes"/>
      <point x="97" y="292"/>
      <point x="153" y="342"/>
      <point x="207" y="342" type="curve" smooth="yes"/>
      <point x="251.618" y="342"/>
      <point x="277.125" y="308.555"/>
      <point x="277.125" y="267.957" type="curve" smooth="yes"/>
      <point x="277.125" y="263.06"/>
      <point x="276.753" y="258.059"/>
    </contour>
  </outline>
</glyph>
<glyph name="ellipsis" format="1">
  <advance width="734"/>
  <unicode hex="2026"/>
  <outline>
    <contour>
      <point x="115" y="92" type="line"/>
      <point x="90" y="10" type="line"/>
      <point x="14" y="0" type="line"/>
      <point x="40" y="82" type="line"/>
    </contour>
    <contour>
      <point x="627" y="92" type="line"/>
      <point x="602" y="10" type="line"/>
      <point x="526" y="0" type="line"/>
      <point x="552" y="82" type="line"/>
    </contour>
    <contour>
      <point x="371" y="92" type="line"/>
      <point x="346" y="10" type="line"/>
      <point x="270" y="0" type="line"/>
      <point x="296" y="82" type="line"/>
    </contour>
  </outline>
</glyph>
<glyph name="guilsinglleft" format="1">
  <advance width="404"/>
  <unicode hex="2039"/>
  <outline>
    <contour>
      <point x="235" y="64" type="line"/>
      <point x="70" y="250" type="line"/>
      <point x="333" y="440" type="line"/>
      <point x="360" y="400" type="line"/>
      <point x="150" y="249" type="line"/>
      <point x="280" y="104" type="line"/>
    </contour>
  </outline>
</glyph>
<glyph name="trademark" format="1">
  <advance width="559"/>
  <unicode hex="2122"/>
  <outline>
    <contour>
      <point x="632" y="692" type="line"/>
      <point x="654" y="469" type="line"/>
      <point x="607" y="461" type="line"/>
      <point x="591" y="617" type="line"/>
      <point x="504" y="470" type="line"/>
      <point x="450" y="460" type="line"/>
      <point x="443" y="619" type="line"/>
      <point x="350" y="470" type="line"/>
      <point x="294" y="460" type="line"/>
      <point x="432" y="682" type="line"/>
      <point x="487" y="691" type="line"/>
      <point x="494" y="535" type="line"/>
      <point x="580" y="683" type="line"/>
    </contour>
    <contour>
      <point x="384" y="691" type="line"/>
      <point x="375" y="645" type="line"/>
      <point x="258" y="645" type="line"/>
      <point x="221" y="471" type="line"/>
      <point x="172" y="461" type="line"/>
      <point x="212" y="645" type="line"/>
      <point x="87" y="645" type="line"/>
      <point x="96" y="691" type="line"/>
    </contour>
  </outline>
</glyph>
